<?xml version="1.0" encoding="utf-8"?>
<!-- Generator: Adobe Illustrator 22.0.0, SVG Export Plug-In . SVG Version: 6.00 Build 0)  -->
<svg version="1.1" id="Layer_1" xmlns="http://www.w3.org/2000/svg" xmlns:xlink="http://www.w3.org/1999/xlink" x="0px" y="0px"
	 viewBox="0 0 653.7 710.8" style="enable-background:new 0 0 653.7 710.8;" xml:space="preserve">
<style type="text/css">
	.st0{fill:#B51010;}
	.st1{fill:#F1D2B5;}
	.st2{fill:#ECC29E;}
	.st3{fill:url(#SVGID_1_);}
	.st4{fill:url(#SVGID_2_);}
	.st5{fill:url(#SVGID_3_);}
	.st6{fill:url(#SVGID_4_);}
	.st7{fill:url(#SVGID_5_);}
	.st8{fill:url(#SVGID_6_);}
	.st9{fill:#630F0F;}
	.st10{fill:#7A7A6E;}
	.st11{fill:#FDDCBB;}
	.st12{clip-path:url(#SVGID_8_);fill:#FBB97F;}
	.st13{fill:#F4F9F9;}
	.st14{fill:#FBB97F;}
	.st15{clip-path:url(#SVGID_10_);fill:#FDDCBB;}
	.st16{clip-path:url(#SVGID_12_);fill:#FDDCBB;}
	.st17{fill:#FCC79D;}
	.st18{fill:#F2A07A;}
	.st19{fill:url(#SVGID_13_);}
	.st20{fill:url(#SVGID_14_);}
	.st21{fill:url(#SVGID_15_);}
	.st22{fill:#363D43;}
	.st23{fill:#27221B;}
	.st24{fill:#1F190D;}
	.st25{opacity:0.7;fill:#F7BD98;}
	.st26{fill:#FFFFFF;}
	.st27{fill:#062B38;}
	.st28{fill:#115062;}
	.st29{fill:#B6FCFC;}
	.st30{fill:#FABB88;}
	.st31{fill:#895D3B;}
</style>
<g>
	<g>
		<path class="st0" d="M273,456.6c0,0-93.1,65.1-104.3,156c-49.1-47.3-72.4-51-72.4-51s45.1-3-9.5,40.2
			c16.4,12.7,83.5,77.4,97.4,75.8C219.1,673.5,273,456.6,273,456.6z"/>
		<g>
			<path class="st1" d="M114.5,567.2c0,0-11.4-16.7-25.6-18c-14.2-1.4-22.5-5.1-24.9-5.8c-2.1-0.6-25.5-4.1-28.2,2.7
				c0,0-2.5,2.3,7.4,7.2c9.9,4.8,12,6.2,12,6.2s6.4,4.3-0.8,9.9c-7.2,5.6-35.7,33.2-51.4,35.9c-6.8,2.1-0.6,9.7,2.3,9.3
				c2.9-0.4-14.9,10.5,10.3,12.4c1.5,4.1,4.3,12.6,20.2,6.8c3.3-1.4,4.3-1.9,4.3-1.9s1.2,8.6,15.3,3.9c14.2-4.7,27.7-16.3,34.1-22.9
				C95.9,606.2,113.8,589.2,114.5,567.2z"/>
			<g>
				<path class="st2" d="M64.3,569c0,0,0.5,0.4,1.4,0.9c0.9,0.6,2.3,1.3,3.9,2.1c0.8,0.4,1.7,0.7,2.7,1.1c1,0.3,2,0.6,3.1,0.9
					c1.1,0.3,2.2,0.4,3.3,0.5c1.1,0.1,2.3,0.1,3.4,0c1.2,0,2.3-0.2,3.4-0.5c0.6-0.1,1.1-0.3,1.7-0.4c0.5-0.2,1.1-0.3,1.6-0.5
					c0.5-0.2,1-0.4,1.5-0.6c0.5-0.2,1-0.4,1.5-0.6c0.5-0.2,0.9-0.5,1.4-0.7c0.4-0.2,0.9-0.4,1.3-0.6c0.8-0.4,1.5-0.8,2.2-1.2
					c0.6-0.4,1.2-0.7,1.7-1c0.9-0.6,1.5-0.9,1.5-0.9s-0.4,0.5-1.1,1.4c-0.3,0.4-0.8,0.9-1.4,1.5c-0.3,0.3-0.6,0.6-0.9,0.9
					c-0.3,0.3-0.7,0.6-1,0.9c-0.7,0.6-1.6,1.2-2.5,1.8c-0.5,0.3-1,0.6-1.5,0.9c-0.5,0.3-1.1,0.5-1.6,0.8c-1.1,0.5-2.3,0.9-3.6,1.3
					c-1.3,0.3-2.6,0.5-3.9,0.6c-1.3,0.1-2.7,0-4-0.1c-1.3-0.2-2.5-0.5-3.7-0.9c-1.2-0.4-2.3-0.9-3.2-1.4c-1-0.5-1.9-1.1-2.7-1.7
					c-1.6-1.1-2.7-2.3-3.4-3.1C64.6,569.5,64.3,569,64.3,569z"/>
			</g>
			<g>
				<linearGradient id="SVGID_1_" gradientUnits="userSpaceOnUse" x1="32.3235" y1="592.6272" x2="13.4733" y2="621.7949">
					<stop  offset="0" style="stop-color:#EEC29D"/>
					<stop  offset="1" style="stop-color:#F0D0B3"/>
				</linearGradient>
				<path class="st3" d="M39.1,597.8c0,0-1.6,1.7-4.3,4c-1.3,1.2-2.8,2.5-4.6,3.9c-1.7,1.4-3.6,2.8-5.5,4.1c-1,0.7-1.9,1.4-2.9,2
					c-0.9,0.7-1.9,1.3-2.9,1.8c-1,0.5-2,0.9-2.9,1.3c-1,0.4-1.9,0.6-2.8,0.8c-0.9,0.2-1.7,0.3-2.4,0.4c-0.4,0-0.7,0.1-1,0.1
					c-0.3,0-0.6,0-0.9,0c-1.1,0-1.7-0.1-1.7-0.1l-0.1-0.4c0,0,0.5-0.4,1.4-0.9c0.4-0.3,1-0.6,1.6-1c0.6-0.4,1.3-0.8,2-1.2
					c0.7-0.5,1.5-0.9,2.3-1.4c0.8-0.5,1.7-1,2.7-1.5c0.9-0.5,1.9-0.9,3-1.4c1-0.5,2.1-0.9,3.1-1.5c2-1.1,4-2.2,5.9-3.3
					c0.9-0.5,1.8-1.1,2.7-1.6c0.8-0.5,1.6-1,2.4-1.5c2.9-1.9,4.9-3.1,4.9-3.1L39.1,597.8z"/>
			</g>
			<g>
				<linearGradient id="SVGID_2_" gradientUnits="userSpaceOnUse" x1="39.2446" y1="606.5324" x2="22.131" y2="633.0137">
					<stop  offset="0" style="stop-color:#EEC29D"/>
					<stop  offset="1" style="stop-color:#F0D0B3"/>
				</linearGradient>
				<path class="st4" d="M45.4,611.3c0,0-1.5,1.5-3.8,3.6c-1.2,1.1-2.6,2.3-4.1,3.5c-1.5,1.3-3.2,2.5-5,3.7
					c-0.9,0.6-1.7,1.2-2.6,1.9c-0.8,0.6-1.7,1.2-2.6,1.7c-0.9,0.5-1.8,0.8-2.7,1.2c-0.9,0.3-1.8,0.5-2.5,0.7
					c-0.8,0.2-1.6,0.3-2.2,0.3c-0.7,0.1-1.3,0.1-1.8,0.1c-1,0-1.5-0.1-1.5-0.1l-0.1-0.4c0,0,0.5-0.4,1.2-0.9
					c0.4-0.3,0.9-0.5,1.4-0.9c0.5-0.4,1.1-0.7,1.8-1.1c0.6-0.4,1.4-0.8,2.1-1.3c0.7-0.5,1.5-0.9,2.4-1.3c0.8-0.4,1.8-0.8,2.7-1.2
					c0.9-0.4,1.9-0.8,2.8-1.3c1.8-1,3.6-2,5.3-3c0.9-0.5,1.6-1,2.4-1.4c0.8-0.5,1.5-0.9,2.2-1.3c2.7-1.6,4.4-2.8,4.4-2.8L45.4,611.3
					z"/>
			</g>
			<g>
				<linearGradient id="SVGID_3_" gradientUnits="userSpaceOnUse" x1="54.1409" y1="616.6268" x2="42.1635" y2="635.16">
					<stop  offset="0" style="stop-color:#EEC29D"/>
					<stop  offset="1" style="stop-color:#F0D0B3"/>
				</linearGradient>
				<path class="st5" d="M58.2,620.1c0,0-0.9,1.1-2.5,2.6c-0.8,0.8-1.7,1.6-2.7,2.5c-1,0.9-2.1,1.8-3.3,2.7
					c-0.6,0.5-1.2,0.9-1.7,1.3c-0.6,0.5-1.2,0.9-1.8,1.2c-1.2,0.7-2.5,1-3.7,1.2c-0.6,0.1-1.1,0.1-1.6,0.1c-0.5,0-0.9,0-1.3-0.1
					c-0.7-0.1-1.1-0.2-1.1-0.2l-0.1-0.4c0,0,0.3-0.3,0.8-0.7c0.2-0.2,0.5-0.4,0.9-0.7c0.3-0.3,0.7-0.6,1.1-0.9
					c0.4-0.3,0.9-0.6,1.4-1c0.5-0.3,1-0.6,1.6-0.9c1.1-0.6,2.5-1,3.7-1.6c1.3-0.6,2.5-1.3,3.7-1.9c1.2-0.6,2.3-1.2,3.2-1.7
					c1.9-1.1,3.1-1.8,3.1-1.8L58.2,620.1z"/>
			</g>
		</g>
	</g>
	<g>
		<path class="st0" d="M380.7,455.2c0,0,93.1,65.1,104.3,156c49.1-47.3,72.4-51,72.4-51s-45.1-3,9.5,40.2
			c-16.4,12.7-83.5,77.4-97.4,75.8C434.6,672.2,380.7,455.2,380.7,455.2z"/>
		<g>
			<path class="st1" d="M539.1,567.2c0,0,11.4-16.7,25.6-18c14.2-1.4,22.5-5.1,24.9-5.8c2.1-0.6,25.5-4.1,28.2,2.7
				c0,0,2.5,2.3-7.4,7.2c-9.9,4.8-12,6.2-12,6.2s-6.4,4.3,0.8,9.9c7.2,5.6,35.7,33.2,51.4,35.9c6.8,2.1,0.6,9.7-2.3,9.3
				s14.9,10.5-10.3,12.4c-1.5,4.1-4.3,12.6-20.2,6.8c-3.3-1.4-4.3-1.9-4.3-1.9s-1.2,8.6-15.3,3.9c-14.2-4.7-27.7-16.3-34.1-22.9
				C557.7,606.2,539.9,589.2,539.1,567.2z"/>
			<g>
				<path class="st2" d="M589.3,569c0,0-0.3,0.5-1.1,1.4c-0.7,0.8-1.9,2-3.4,3.1c-0.8,0.6-1.7,1.2-2.7,1.7c-1,0.5-2.1,1-3.2,1.4
					c-1.2,0.4-2.4,0.7-3.7,0.9c-1.3,0.2-2.6,0.2-4,0.1c-1.3-0.1-2.6-0.3-3.9-0.6c-1.3-0.3-2.5-0.8-3.6-1.3c-0.5-0.3-1.1-0.5-1.6-0.8
					c-0.5-0.3-1-0.6-1.5-0.9c-0.9-0.6-1.8-1.2-2.5-1.8c-0.4-0.3-0.7-0.6-1-0.9c-0.3-0.3-0.6-0.6-0.9-0.9c-0.6-0.5-1-1-1.4-1.5
					c-0.7-0.8-1.1-1.4-1.1-1.4s0.6,0.3,1.5,0.9c0.4,0.3,1,0.6,1.7,1c0.6,0.4,1.4,0.8,2.2,1.2c0.4,0.2,0.8,0.4,1.3,0.6
					c0.4,0.2,0.9,0.5,1.4,0.7c0.5,0.2,1,0.4,1.5,0.6c0.5,0.2,1,0.4,1.5,0.6c0.5,0.2,1.1,0.3,1.6,0.5c0.5,0.1,1.1,0.3,1.7,0.4
					c1.1,0.2,2.3,0.4,3.4,0.5c1.2,0.1,2.3,0,3.4,0c1.1-0.1,2.3-0.3,3.3-0.5c1.1-0.2,2.1-0.5,3.1-0.9c1-0.3,1.9-0.7,2.7-1.1
					c1.6-0.8,3-1.5,3.9-2.1C588.8,569.3,589.3,569,589.3,569z"/>
			</g>
			<g>
				<linearGradient id="SVGID_4_" gradientUnits="userSpaceOnUse" x1="621.3432" y1="592.6274" x2="640.1934" y2="621.7951">
					<stop  offset="0" style="stop-color:#EEC29D"/>
					<stop  offset="1" style="stop-color:#F0D0B3"/>
				</linearGradient>
				<path class="st6" d="M614.8,597.5c0,0,1.9,1.3,4.9,3.1c0.7,0.5,1.5,0.9,2.4,1.5c0.9,0.5,1.7,1.1,2.7,1.6
					c1.9,1.1,3.8,2.3,5.9,3.3c1,0.6,2,1,3.1,1.5c1,0.5,2,0.9,3,1.4c0.9,0.5,1.8,1,2.7,1.5c0.8,0.5,1.6,0.9,2.3,1.4
					c0.7,0.4,1.4,0.8,2,1.2c0.6,0.4,1.1,0.7,1.6,1c0.9,0.5,1.4,0.9,1.4,0.9l-0.1,0.4c0,0-0.6,0.1-1.7,0.1c-0.3,0-0.6,0-0.9,0
					c-0.3,0-0.7-0.1-1-0.1c-0.7-0.1-1.6-0.2-2.4-0.4c-0.9-0.2-1.8-0.5-2.8-0.8c-1-0.4-2-0.8-2.9-1.3c-1-0.6-2-1.1-2.9-1.8
					c-0.9-0.7-1.9-1.4-2.9-2c-1.9-1.3-3.8-2.7-5.5-4.1c-1.7-1.4-3.3-2.7-4.6-3.9c-2.6-2.3-4.3-4-4.3-4L614.8,597.5z"/>
			</g>
			<g>
				<linearGradient id="SVGID_5_" gradientUnits="userSpaceOnUse" x1="614.4214" y1="606.5323" x2="631.5353" y2="633.0141">
					<stop  offset="0" style="stop-color:#EEC29D"/>
					<stop  offset="1" style="stop-color:#F0D0B3"/>
				</linearGradient>
				<path class="st7" d="M608.5,611c0,0,1.8,1.1,4.4,2.8c0.7,0.4,1.4,0.8,2.2,1.3c0.8,0.4,1.6,0.9,2.4,1.4c1.7,1,3.5,2,5.3,3
					c0.9,0.5,1.8,0.9,2.8,1.3c0.9,0.4,1.8,0.8,2.7,1.2c0.8,0.4,1.6,0.9,2.4,1.3c0.7,0.4,1.5,0.8,2.1,1.3c0.6,0.4,1.3,0.8,1.8,1.1
					c0.5,0.4,1,0.6,1.4,0.9c0.8,0.5,1.2,0.9,1.2,0.9l-0.1,0.4c0,0-0.6,0.1-1.5,0.1c-0.5,0-1.1,0-1.8-0.1c-0.7-0.1-1.4-0.2-2.2-0.3
					c-0.8-0.2-1.7-0.4-2.5-0.7c-0.9-0.3-1.8-0.7-2.7-1.2c-0.9-0.5-1.8-1-2.6-1.7c-0.9-0.6-1.7-1.2-2.6-1.9c-1.7-1.2-3.4-2.5-5-3.7
					c-1.5-1.2-2.9-2.5-4.1-3.5c-2.4-2.1-3.8-3.6-3.8-3.6L608.5,611z"/>
			</g>
			<g>
				<linearGradient id="SVGID_6_" gradientUnits="userSpaceOnUse" x1="599.5255" y1="616.6265" x2="611.5029" y2="635.1597">
					<stop  offset="0" style="stop-color:#EEC29D"/>
					<stop  offset="1" style="stop-color:#F0D0B3"/>
				</linearGradient>
				<path class="st8" d="M595.7,619.7c0,0,1.2,0.7,3.1,1.8c0.9,0.5,2,1.1,3.2,1.7c1.2,0.6,2.4,1.3,3.7,1.9c1.2,0.6,2.6,1,3.7,1.6
					c0.6,0.3,1.1,0.6,1.6,0.9c0.5,0.3,0.9,0.6,1.4,1c0.4,0.3,0.8,0.6,1.1,0.9c0.3,0.3,0.6,0.5,0.9,0.7c0.5,0.4,0.8,0.7,0.8,0.7
					l-0.1,0.4c0,0-0.4,0.1-1.1,0.2c-0.4,0.1-0.8,0.1-1.3,0.1c-0.5,0-1,0-1.6-0.1c-1.1-0.2-2.4-0.5-3.7-1.2c-0.6-0.3-1.2-0.7-1.8-1.2
					c-0.6-0.4-1.1-0.9-1.7-1.3c-1.2-0.9-2.3-1.8-3.3-2.7c-1-0.9-1.9-1.8-2.7-2.5c-1.5-1.5-2.5-2.6-2.5-2.6L595.7,619.7z"/>
			</g>
		</g>
	</g>
	<path class="st0" d="M190.6,632.8h24.9c-0.8-8.4-1.2-16.9-1.2-25.6c0-60,23.4-122.6,63.1-154.7C163.8,515,190.6,632.8,190.6,632.8z
		"/>
	<path class="st9" d="M325.4,536.8l-27.1-42.2l-21-42.1c-42.4,45.1-62.6,133-62.6,221.6c0,12.5,0.4,24.7,1.2,36.7h221
		c0.8-12,1.2-24.2,1.2-36.7c0-89.2-18.7-180.2-62.8-221.6l-22.7,42.1L325.4,536.8z"/>
	<rect x="277.4" y="452.5" class="st10" width="98.5" height="25"/>
	<rect x="288.5" y="426.1" class="st11" width="75.5" height="91.5"/>
	<path class="st0" d="M325.5,536.7l-25.7-42.2l-24.4-40.2c-40.2,45.1-54.9,131.2-54.9,219.9c0,12.5,0.4,24.7,1.1,36.7h209.6
		c0.7-12,1.1-24.2,1.1-36.7c0-89.3-14.2-179.5-56.1-220.9l-25.1,41.3L325.5,536.7z"/>
	<path class="st9" d="M374.7,452.5c0,0,39,25.2,6.8,93.7c-6.6-4.9-46.2-32.1-54.9-34.9C333.4,504.3,374.7,452.5,374.7,452.5z"/>
	<path class="st9" d="M277.4,452.5c0,0-39,25.2-6.8,93.7c6.6-4.9,46.2-32.1,54.9-34.9C318.7,504.3,277.4,452.5,277.4,452.5z"/>
	<g>
		<defs>
			<rect id="SVGID_7_" x="288.5" y="428.9" width="75.5" height="91.5"/>
		</defs>
		<clipPath id="SVGID_8_">
			<use xlink:href="#SVGID_7_"  style="overflow:visible;"/>
		</clipPath>
		<path class="st12" d="M288.5,428.6V441c0,0,39.2,13.8,75.8,0c0.3-4.5,0-22.8,0-22.8l-74.4-5.8L288.5,428.6z"/>
	</g>
	<path class="st13" d="M375.2,452.5c0,0,35.1,24,4.3,89.5c-6.3-4.7-45.9-28-54.1-30.7C331.9,504.6,375.2,452.5,375.2,452.5z"/>
	<path class="st13" d="M277.4,452.5c0,0-35.1,24-4.3,89.5c6.3-4.7,44.1-28,52.4-30.7C319,504.6,277.4,452.5,277.4,452.5z"/>
	<g>
		<path class="st14" d="M475.2,261.9c0,0,50.2-12.8,60.9,14.1c10.7,26.9-16.1,66.6-63.1,53c-47-13.7-14.3-8-14.3-8L475.2,261.9"/>
		<g>
			<defs>
				<path id="SVGID_9_" d="M475.2,261.9c0,0,50.2-12.8,60.9,14.1c10.7,26.9-16.1,66.6-63.1,53c-47-13.7-14.3-8-14.3-8L475.2,261.9"
					/>
			</defs>
			<clipPath id="SVGID_10_">
				<use xlink:href="#SVGID_9_"  style="overflow:visible;"/>
			</clipPath>
			<path class="st15" d="M475.2,253.2c0,0,50.2-12.8,60.9,14.1c10.7,26.9-16.1,66.6-63.1,53c-47-13.7-14.3-8-14.3-8L475.2,253.2"/>
		</g>
	</g>
	<g>
		<path class="st14" d="M176.4,261.8c0,0-50.2-12.8-60.9,14.1c-10.7,26.9,16.1,66.6,63.1,53c47-13.7,14.3-8,14.3-8L176.4,261.8"/>
		<g>
			<defs>
				<path id="SVGID_11_" d="M176.4,261.8c0,0-50.2-12.8-60.9,14.1c-10.7,26.9,16.1,66.6,63.1,53c47-13.7,14.3-8,14.3-8L176.4,261.8"
					/>
			</defs>
			<clipPath id="SVGID_12_">
				<use xlink:href="#SVGID_11_"  style="overflow:visible;"/>
			</clipPath>
			<path class="st16" d="M176.4,253.2c0,0-50.2-12.8-60.9,14.1c-10.7,26.9,16.1,66.6,63.1,53c47-13.7,14.3-8,14.3-8L176.4,253.2"/>
		</g>
	</g>
	<path class="st17" d="M178.6,261.9c0,0-3.7,169.6,153.2,172.3c46.7-2.7,135.4-18.7,145.1-172.9c9.8-154.2-58.2-207-58.2-207
		l-148,22.7L191,171.1l-12.7,90.5"/>
	<path class="st11" d="M175.9,250.5c0,0-3.7,169.6,153.2,172.3c46.7-2.7,135.4-18.7,145.1-172.9c9.8-154.2-58.2-207-58.2-207
		l-148,22.7l-79.8,94.1l-12.7,90.5"/>
	<g id="nose_9_">
		<g>
			<ellipse class="st18" cx="325.8" cy="322.4" rx="25.4" ry="20.9"/>
		</g>
		<g>
			<linearGradient id="SVGID_13_" gradientUnits="userSpaceOnUse" x1="325.7974" y1="295.9362" x2="325.7974" y2="397.2719">
				<stop  offset="0" style="stop-color:#FDDCBB"/>
				<stop  offset="1" style="stop-color:#F7BA95"/>
			</linearGradient>
			<ellipse class="st19" cx="325.8" cy="316.1" rx="25.4" ry="20.9"/>
		</g>
	</g>
	<linearGradient id="SVGID_14_" gradientUnits="userSpaceOnUse" x1="401.041" y1="288.4235" x2="401.041" y2="210.282">
		<stop  offset="0" style="stop-color:#FDDCBB"/>
		<stop  offset="1" style="stop-color:#F7BA95"/>
	</linearGradient>
	<polygon class="st20" points="444.5,288.9 357.6,288.9 357.6,209.6 444.5,223 	"/>
	
		<linearGradient id="SVGID_15_" gradientUnits="userSpaceOnUse" x1="-4527.6821" y1="288.4235" x2="-4527.6821" y2="210.282" gradientTransform="matrix(-1 0 0 1 -4274 0)">
		<stop  offset="0" style="stop-color:#FDDCBB"/>
		<stop  offset="1" style="stop-color:#F7BA95"/>
	</linearGradient>
	<polygon class="st21" points="210.2,288.9 297.1,288.9 297.1,209.6 210.2,223 	"/>
	<path class="st22" d="M470,222.2c-5.8,8.4-11.9,16.6-11.9,16.6l0,0c-16.4-3.1-63.6-12.5-117.1,6.8c-15.9,3-28.7-0.6-28.7-0.6
		c-54.6-19.7-103.1-9.7-118.1-6.5c0,0-5.2-7.9-11-16.3c-1.1-1.5-3.8,4.9-3.1,6.6c2.7,7.5,6.1,27.6,8.2,36.8
		c8.1,35.3,8.5,64.8,60,65.6c54.8,0.9,59.8-46.9,67.4-61c0,0,10.4-11.9,21.6,0l0.5,0.6c7.6,14.1,12.6,61.9,67.4,61
		c51.5-0.9,52.2-30.3,60-65.6c2-9.2,5-29.2,7.8-36.7C473.5,227.9,471.1,220.7,470,222.2z M296.3,290.7c-3.6,9.4-12.8,31.6-47,32.8
		c-34.3,1.2-45.7-19.8-46.3-53.1c-0.6-35.3,52.8-29.8,80.7-23.2C311.7,253.8,299.7,281.5,296.3,290.7z M403.7,325.1
		c-34.2-1.2-43.5-23.3-47-32.8c-3.5-9.2-15.4-36.9,12.6-43.5c28-6.7,81.4-12.2,80.7,23.2C449.4,305.4,437.9,326.3,403.7,325.1z"/>
	<path class="st23" d="M210.2,230.4v-17.8c0,0,16.5-6.8,86.9-7.8v10.8C297.1,215.7,233.7,215.3,210.2,230.4z"/>
	<g>
		<path class="st23" d="M414.6,92.9c-3-0.7-0.3,79.1,61.1,167.3c2,3,5.3-70.4,5.3-70.4l-38.4-99.5C442.7,90.3,417.6,93.6,414.6,92.9
			z"/>
		<path class="st23" d="M416.3,83.9c-8,53.8-111.8,140.2-210,183.6c-4.3,3.7,70.4-55.4,70.4-55.4l91.8-116.9
			C368.5,95.3,424.3,30.2,416.3,83.9z"/>
		<path class="st23" d="M253.7,175.3c0,0-15,60.9-76.8,86.6c2.3-13.7,20-36.4,20-36.4L253.7,175.3z"/>
	</g>
	<path class="st24" d="M166.9,203.1c0,0-15,18-16.4,26.7c-1.3,8.7-8.3-74.8,2.7-109.8c4-17,13.9-23.7,14.2-23.8
		c0.4-0.1-2.3-6.4-20.3,1.1c-1.3,0.6,20.5-63.7,100.3-69c1.3,0,134.7-71.9,173.3,13.3c0.7,1.5,22-3.5,23.3-19.3
		c0.7-4.3,4.5,8.3-3.8,27.3c0,0,43.8-23.3,79.1,34.8c0.8,2.3-8.8-7.5-21-3c1.3,4,41.3,103.2,0.2,151.7c-1.1,1.6-2.3-15.9-10.8-21.9
		c-1.3-0.4-7.2,34.8-12.1,49c-0.3,1.4-58.4-136.6-62.1-167.3c0,0-182.8,166-207.3,174.6c0,0,46.4-45.4,47.4-88.8
		c-1.3-1.7-39.7,68.6-77.1,84C176.2,250.4,166.9,203.1,166.9,203.1z"/>
	<path class="st23" d="M444.5,229.4v-17.8c0,0-16.5-6.8-86.9-7.8v10.8C357.6,214.7,421,214.3,444.5,229.4z"/>
	<g id="eye_19_">
		<path class="st25" d="M416.4,277.8c0,10.5-8.5,18.9-18.9,18.9c-10.4,0-18.9-8.5-18.9-18.9c0-10.5,8.5-18.9,18.9-18.9
			C408,258.9,416.4,267.4,416.4,277.8z"/>
		<path class="st26" d="M414.9,277.8c0,9.6-7.8,17.4-17.4,17.4c-9.6,0-17.4-7.8-17.4-17.4c0-9.6,7.8-17.4,17.4-17.4
			C407.1,260.5,414.9,268.3,414.9,277.8z"/>
		<path class="st27" d="M410.3,277.8c0,7.1-5.7,12.8-12.8,12.8c-7.1,0-12.8-5.7-12.8-12.8c0-7.1,5.7-12.8,12.8-12.8
			C404.6,265.1,410.3,270.8,410.3,277.8z"/>
		<path class="st28" d="M403.7,277.8c0,3.4-2.8,6.2-6.2,6.2c-3.4,0-6.2-2.8-6.2-6.2c0-3.4,2.8-6.2,6.2-6.2
			C400.9,271.7,403.7,274.4,403.7,277.8z"/>
		<path class="st29" d="M398.7,276c0,1.8-1.4,3.2-3.2,3.2c-1.8,0-3.2-1.4-3.2-3.2c0-1.8,1.4-3.2,3.2-3.2
			C397.3,272.9,398.7,274.3,398.7,276z"/>
	</g>
	<g id="eye_18_">
		<path class="st25" d="M275.2,277.8c0,10.5-8.5,18.9-18.9,18.9c-10.4,0-18.9-8.5-18.9-18.9c0-10.5,8.5-18.9,18.9-18.9
			C266.7,258.9,275.2,267.4,275.2,277.8z"/>
		<path class="st26" d="M273.6,277.8c0,9.6-7.8,17.4-17.4,17.4c-9.6,0-17.4-7.8-17.4-17.4c0-9.6,7.8-17.4,17.4-17.4
			C265.9,260.5,273.6,268.3,273.6,277.8z"/>
		<path class="st27" d="M269,277.8c0,7.1-5.7,12.8-12.8,12.8c-7.1,0-12.8-5.7-12.8-12.8c0-7.1,5.7-12.8,12.8-12.8
			C263.3,265.1,269,270.8,269,277.8z"/>
		<path class="st28" d="M262.4,277.8c0,3.4-2.8,6.2-6.2,6.2c-3.4,0-6.2-2.8-6.2-6.2c0-3.4,2.8-6.2,6.2-6.2
			C259.7,271.7,262.4,274.4,262.4,277.8z"/>
		<path class="st29" d="M257.5,276c0,1.8-1.4,3.2-3.2,3.2c-1.8,0-3.2-1.4-3.2-3.2c0-1.8,1.4-3.2,3.2-3.2
			C256.1,272.9,257.5,274.3,257.5,276z"/>
	</g>
	<g>
		<path class="st30" d="M303.5,401.3c0,0,0.3-0.8,1.2-1.9c0.8-1.2,2.2-2.7,4.2-4.3c1.9-1.5,4.5-3.1,7.5-4.2c0.7-0.3,1.5-0.5,2.3-0.7
			c0.8-0.2,1.6-0.4,2.4-0.6c1.7-0.3,3.4-0.4,5.1-0.4c1.7,0,3.4,0.2,5.1,0.5c1.7,0.3,3.2,0.8,4.7,1.3c1.5,0.6,2.9,1.2,4.1,2
			c1.3,0.7,2.3,1.5,3.3,2.3c1,0.8,1.8,1.5,2.5,2.3c0.7,0.7,1.3,1.4,1.7,2c0.9,1.2,1.3,1.9,1.3,1.9s-0.8-0.2-2.2-0.5
			c-0.7-0.2-1.5-0.4-2.4-0.6c-0.9-0.3-1.9-0.5-3-0.8c-0.5-0.2-1.1-0.3-1.7-0.4c-0.6-0.1-1.2-0.3-1.8-0.4c-1.2-0.3-2.5-0.5-3.8-0.7
			c-0.7-0.1-1.3-0.2-2-0.3c-0.3,0-0.7-0.1-1-0.1c-0.3,0-0.7-0.1-1-0.1c-0.7,0-1.3-0.1-2-0.1l-1-0.1l-1,0c-1.4,0-2.7,0.1-4,0.1
			c-1.3,0.1-2.7,0.2-4,0.4c-1.3,0.2-2.6,0.4-3.8,0.7c-1.2,0.2-2.4,0.5-3.4,0.8c-2.2,0.5-4,1.1-5.3,1.5c-0.7,0.2-1.2,0.4-1.6,0.5
			C303.7,401.3,303.5,401.3,303.5,401.3z"/>
	</g>
	<g>
		<path class="st31" d="M358.5,379C358.5,379,358.5,379,358.5,379L358.5,379L358.5,379C358.5,379,358.6,379,358.5,379
			c0,0-0.2,0-0.2,0.2c0,0.1,0,0.1,0,0.1c0.1,0.1,0,0,0,0c0,0,0,0-0.1,0c-0.1-0.1-0.3-0.1-0.5-0.2c-0.5-0.2-1.2-0.5-2.1-0.9
			c-1.8-0.7-4.4-1.8-7.6-2.9c-3.2-1.1-6.9-2.3-11-3.4c-4-1.1-8.4-2.1-12.8-2.8c-2.2-0.3-4.4-0.6-6.6-0.7c-2.2-0.1-4.3-0.2-6.3-0.2
			c-2,0-4,0-5.8,0.1c-0.9,0-1.8,0.1-2.7,0.2c-0.9,0.1-1.7,0.2-2.5,0.3c-1.6,0.3-3,0.6-4.3,1c-1.3,0.4-2.4,0.8-3.3,1.1
			c-1.8,0.7-2.8,1.3-2.8,1.3l-0.2-0.3c0,0,0.2-0.2,0.6-0.6c0.4-0.4,1-0.9,1.8-1.6c0.8-0.6,1.8-1.4,3.1-2c1.3-0.7,2.8-1.4,4.4-1.9
			c0.8-0.3,1.7-0.5,2.7-0.8c0.9-0.2,1.9-0.4,2.9-0.5c2-0.3,4.1-0.4,6.3-0.4c2.2,0.1,4.4,0.3,6.7,0.7c2.2,0.4,4.5,0.8,6.7,1.3
			c4.5,1,8.8,2.3,12.9,3.7c4,1.4,7.7,2.9,10.8,4.3c3.1,1.4,5.6,2.6,7.4,3.5c0.9,0.5,1.6,0.8,2,1.1
			C358.2,378.8,358.3,378.9,358.5,379C358.5,379,358.5,379,358.5,379c0.1,0,0.1,0,0.2,0.1c0,0,0,0,0,0.1c0,0.2-0.2,0.2-0.2,0.2
			c-0.1,0-0.1,0-0.1,0l0,0l0,0c0,0,0,0,0,0L358.5,379z"/>
	</g>
</g>
</svg>
