<?xml version="1.0" encoding="utf-8"?>
<!-- Generator: Adobe Illustrator 22.0.0, SVG Export Plug-In . SVG Version: 6.00 Build 0)  -->
<svg version="1.1" id="Layer_1" xmlns="http://www.w3.org/2000/svg" xmlns:xlink="http://www.w3.org/1999/xlink" x="0px" y="0px"
	 viewBox="0 0 459.9 709.5" style="enable-background:new 0 0 459.9 709.5;" xml:space="preserve">
<style type="text/css">
	.st0{fill:#FDDCBB;}
	.st1{fill:#FCC79D;}
	.st2{fill:#B51010;}
	.st3{fill:#630F0F;}
	.st4{fill:#7A7A6E;}
	.st5{clip-path:url(#SVGID_2_);fill:#FBB97F;}
	.st6{fill:#F4F9F9;}
	.st7{fill:#FBB97F;}
	.st8{clip-path:url(#SVGID_4_);fill:#FDDCBB;}
	.st9{clip-path:url(#SVGID_6_);fill:#FDDCBB;}
	.st10{fill:#F2A07A;}
	.st11{fill:url(#SVGID_7_);}
	.st12{fill:url(#SVGID_8_);}
	.st13{fill:url(#SVGID_9_);}
	.st14{fill:#363D43;}
	.st15{fill:#27221B;}
	.st16{opacity:0.7;fill:#F7BD98;}
	.st17{fill:#FFFFFF;}
	.st18{fill:#062B38;}
	.st19{fill:#115062;}
	.st20{fill:#B6FCFC;}
	.st21{fill:#895D3B;}
	.st22{fill:#FABB88;}
	.st23{fill:#1F190D;}
</style>
<g>
	<path class="st0" d="M437.8,559.4l0.3-15.3c0,0,15.8-38.1,18.9-60.6c3.1-22.5,4.2-24,0.8-26.6c-3.3-2.7-31.6-14.3-44.9-11.4
		c-13.7,2.9-15,11.1-15.1,13.8c-0.1,2.7-2.7,19-2.7,19s11.1,35.4,11.8,38.1c0.6,2.7,2.7,8,2.7,8l9.8-1.1c0,0-4.7,12.9-2.7,14.3
		c2,1.4-3,3.2-3,3.2s0.1,9.3-0.7,14.8c-0.8,5.5-1.5,9.6-1.5,9.6l25.7,0.5L437.8,559.4z"/>
	<path class="st1" d="M384.6,448.9c0.2,4.3,0.1,11.9,0,18.2c-0.1,6.3,0.3,18.3,1.7,22.1c1.4,3.8,3,6.1,4.6,7.5
		c1.6,1.4,1.6,1.4,1.6,1.4s-1.2,14.7,2.7,23.1c3.9,8.3,7.1,10.8,8.6,12c1.5,1.2,4.4,1.9,4.4,1.9l-0.5,24.2l4.7,2.2
		c0,0,0.3-7.7,3.5-13.6c3.2-5.9,3.7-5.9,3.7-5.9s1.7,3.9,3.5,4.3c1.8,0.3,2.4-0.7,2.4-0.7s1-0.8-1-3.2c-2-2.3-4.3-5.3-2.3-12.4
		c1.9-7,5-16.4,4.2-17.2c-0.8-0.8-6.4-2.8-8.2-2.5c-1.8,0.3-2.9,2-0.8,2.9c2.1,0.9,4.9,1.3,4.9,1.3s0.2,5.8-1.3,7.2
		c-1.5,1.4-9-0.4-11.1-1c-2.1-0.6-3.4-7-3.2-12.5c0.1-5.6,1.6-7,2.9-7.8c1.2-0.7,5.9-1.8,10.4-1.8c4.5,0.1,10.7,1,11.6,0.2
		c0.9-0.7,1.5-2.1,0.1-3c-1.5-0.9-18.2-1.9-20.9-0.4c-2.7,1.5-3.9,2.7-5,3.4c-1.1,0.7-3.9-7.3-1.4-11.8c2.5-4.5,4.9-5,6.7-4.8
		c1.8,0.2,13.8-0.2,15.6,0.3c1.8,0.5,6.6,1.8,7.5,1c0.9-0.7,2.2-3.6,0.1-4.2c-2.1-0.6-21.6-1.8-24-1.2c-2.4,0.6-7,4.2-7,4.2
		s-2.1-6.7-1-12c1.1-5.3,6.1-6.4,8.9-6.9c2.9-0.5,24.5,4.7,24.5,4.7s4.4-0.2,2.9-1.7c-1.5-1.5-10-4.1-10-4.1s-13.6-3.9-20.3-1.6
		c-6.7,2.3-7.9,5.6-7.9,5.6s0.5-12.6,2-18.6c1.3-5.1,6.5-24.8-7-25.1C378.1,422.3,384.3,441.8,384.6,448.9z"/>
</g>
<path class="st2" d="M268.7,456.3c0,0,93.1,65.1,104.3,156C382.2,554.7,409,545,409,545s23,20.7,30,9.7
	c6.5,21.5-25.5,132-81.7,122.6C322.8,671.5,268.7,456.3,268.7,456.3z"/>
<g>
	<path class="st2" d="M107.8,709.5L50,709.2c0-210,108.6-253.9,108.6-253.9L107.8,709.5"/>
</g>
<path class="st2" d="M76.3,631.5h24.9c-0.8-8.4-1.2-16.9-1.2-25.6c0-60,23.4-122.6,63.1-154.7C49.5,513.7,76.3,631.5,76.3,631.5z"/>
<path class="st3" d="M211.1,535.5l-27.1-42.2l-21-42.1c-42.4,45.1-62.6,133-62.6,221.6c0,12.5,0.4,24.7,1.2,36.7h221
	c0.8-12,1.2-24.2,1.2-36.7c0-89.2-18.7-180.3-62.8-221.6l-22.7,42.1L211.1,535.5z"/>
<rect x="163.1" y="451.2" class="st4" width="98.5" height="25"/>
<rect x="174.1" y="424.8" class="st0" width="75.5" height="91.5"/>
<path class="st2" d="M211.2,535.4l-25.7-42.2l-24.4-40.2c-40.2,45.1-54.9,131.2-54.9,219.9c0,12.5,0.4,24.7,1.1,36.7h209.6
	c0.7-12,1.1-24.2,1.1-36.7c0-89.3-14.2-179.5-56.1-220.9l-25.1,41.3L211.2,535.4z"/>
<path class="st3" d="M260.4,451.2c0,0,39,25.2,6.8,93.7c-6.6-4.9-46.2-32.1-54.9-34.9C219,503,260.4,451.2,260.4,451.2z"/>
<path class="st3" d="M163.1,451.2c0,0-39,25.2-6.8,93.7c6.6-4.9,46.2-32.1,54.9-34.9C204.4,503,163.1,451.2,163.1,451.2z"/>
<g>
	<defs>
		<rect id="SVGID_1_" x="174.1" y="427.6" width="75.5" height="91.5"/>
	</defs>
	<clipPath id="SVGID_2_">
		<use xlink:href="#SVGID_1_"  style="overflow:visible;"/>
	</clipPath>
	<path class="st5" d="M174.1,427.3v12.4c0,0,39.2,13.8,75.8,0c0.3-4.5,0-22.8,0-22.8l-74.4-5.8L174.1,427.3z"/>
</g>
<path class="st6" d="M260.9,451.2c0,0,35.1,24,4.3,89.5c-6.3-4.7-45.9-28-54.1-30.7C217.5,503.3,260.9,451.2,260.9,451.2z"/>
<path class="st6" d="M163.1,451.2c0,0-35.1,24-4.3,89.5c6.3-4.7,44.1-28,52.4-30.7C204.7,503.3,163.1,451.2,163.1,451.2z"/>
<g>
	<path class="st7" d="M361.5,261.5c0,0,50.1-12.8,60.8,14.1c10.7,26.9-16.1,66.5-63,52.9c-47-13.7-14.3-8-14.3-8L361.5,261.5"/>
	<g>
		<defs>
			<path id="SVGID_3_" d="M361.5,261.5c0,0,50.1-12.8,60.8,14.1c10.7,26.9-16.1,66.5-63,52.9c-47-13.7-14.3-8-14.3-8L361.5,261.5"/>
		</defs>
		<clipPath id="SVGID_4_">
			<use xlink:href="#SVGID_3_"  style="overflow:visible;"/>
		</clipPath>
		<path class="st8" d="M361.5,252.8c0,0,50.1-12.8,60.8,14.1c10.7,26.9-16.1,66.5-63,52.9c-47-13.7-14.3-8-14.3-8L361.5,252.8"/>
	</g>
</g>
<g>
	<path class="st7" d="M63.1,261.4c0,0-50.1-12.8-60.8,14.1c-10.7,26.9,16.1,66.5,63,52.9c47-13.7,14.3-8,14.3-8L63.1,261.4"/>
	<g>
		<defs>
			<path id="SVGID_5_" d="M63.1,261.4c0,0-50.1-12.8-60.8,14.1c-10.7,26.9,16.1,66.5,63,52.9c47-13.7,14.3-8,14.3-8L63.1,261.4"/>
		</defs>
		<clipPath id="SVGID_6_">
			<use xlink:href="#SVGID_5_"  style="overflow:visible;"/>
		</clipPath>
		<path class="st9" d="M63.1,252.8c0,0-50.1-12.8-60.8,14.1c-10.7,26.9,16.1,66.5,63,52.9c47-13.7,14.3-8,14.3-8L63.1,252.8"/>
	</g>
</g>
<path class="st1" d="M63.6,261.5c0,0-3.7,169.3,153,172c46.7-2.7,135.2-18.7,144.9-172.7S303.4,54.1,303.4,54.1L155.6,76.8l-79.7,94
	l-12.7,90.3"/>
<path class="st0" d="M63.6,253.5c0,0-3.7,169.3,153,172c46.7-2.7,135.2-18.7,144.9-172.7S303.4,46.1,303.4,46.1L155.6,68.8l-79.7,94
	l-12.7,90.3"/>
<g id="nose_11_">
	<g>
		<ellipse class="st10" cx="212.3" cy="321.9" rx="25.4" ry="20.9"/>
	</g>
	<g>
		<linearGradient id="SVGID_7_" gradientUnits="userSpaceOnUse" x1="212.2656" y1="295.4659" x2="212.2656" y2="396.6407">
			<stop  offset="0" style="stop-color:#FDDCBB"/>
			<stop  offset="1" style="stop-color:#F7BA95"/>
		</linearGradient>
		<ellipse class="st11" cx="212.3" cy="315.6" rx="25.4" ry="20.9"/>
	</g>
</g>
<linearGradient id="SVGID_8_" gradientUnits="userSpaceOnUse" x1="287.3906" y1="287.9733" x2="287.3906" y2="211.2697">
	<stop  offset="0" style="stop-color:#FDDCBB"/>
	<stop  offset="1" style="stop-color:#F7BA95"/>
</linearGradient>
<polygon class="st12" points="330.8,288.5 244,288.5 244,214.3 330.8,210.6 "/>
<linearGradient id="SVGID_9_" gradientUnits="userSpaceOnUse" x1="-6102.2686" y1="287.9733" x2="-6102.2686" y2="211.2697" gradientTransform="matrix(-1 0 0 1 -5962.0029 0)">
	<stop  offset="0" style="stop-color:#FDDCBB"/>
	<stop  offset="1" style="stop-color:#F7BA95"/>
</linearGradient>
<polygon class="st13" points="96.9,288.5 183.6,288.5 183.6,214.3 96.9,210.6 "/>
<path class="st14" d="M356.3,221.9c-5.8,8.4-11.9,16.6-11.9,16.6l0,0c-16.4-3.1-63.5-12.5-116.9,6.8c-15.9,3-28.6-0.6-28.6-0.6
	c-54.5-19.7-103-9.7-117.9-6.5c0,0-5.2-7.9-11-16.3c-1.1-1.5-3.8,4.9-3.1,6.6c2.7,7.4,6.1,27.6,8.2,36.8c8,35.2,8.5,64.7,59.9,65.5
	c54.7,0.9,59.7-46.8,67.3-60.9c0,0,10.4-11.9,21.5,0l0.5,0.6c7.6,14,12.5,61.8,67.3,60.9c51.4-0.9,52.1-30.3,59.9-65.5
	c2-9.1,5-29.2,7.7-36.6C359.8,227.5,357.3,220.4,356.3,221.9z M182.8,290.2c-3.6,9.4-12.8,31.6-47,32.7c-34.2,1.2-45.6-19.7-46.2-53
	c-0.6-35.3,52.7-29.8,80.6-23.1C198.2,253.4,186.3,281.1,182.8,290.2z M290,324.6c-34.2-1.2-43.4-23.3-47-32.7
	c-3.5-9.2-15.4-36.8,12.6-43.4c27.9-6.6,81.2-12.2,80.6,23.1C335.6,304.9,324.2,325.8,290,324.6z"/>
<path class="st15" d="M244,232v-17.8c0,0,16.3-10.8,86.7-4.8v10.8C330.8,220.4,279.9,212,244,232z"/>
<path class="st15" d="M183.6,232v-17.8c0,0-16.3-10.8-86.8-4.8v10.8C96.9,220.4,147.8,212,183.6,232z"/>
<g id="eye_23_">
	<path class="st16" d="M302.8,277.4c0,10.4-8.5,18.9-18.9,18.9c-10.4,0-18.9-8.5-18.9-18.9c0-10.4,8.5-18.9,18.9-18.9
		C294.3,258.5,302.8,267,302.8,277.4z"/>
	<path class="st17" d="M301.2,277.4c0,9.6-7.8,17.3-17.3,17.3c-9.6,0-17.3-7.8-17.3-17.3c0-9.6,7.8-17.3,17.3-17.3
		C293.4,260.1,301.2,267.8,301.2,277.4z"/>
	<path class="st18" d="M296.6,277.4c0,7-5.7,12.8-12.8,12.8c-7,0-12.8-5.7-12.8-12.8c0-7,5.7-12.8,12.8-12.8
		C290.9,264.7,296.6,270.4,296.6,277.4z"/>
	<path class="st19" d="M290,277.4c0,3.4-2.8,6.2-6.2,6.2c-3.4,0-6.2-2.8-6.2-6.2c0-3.4,2.8-6.2,6.2-6.2
		C287.3,271.2,290,274,290,277.4z"/>
	<path class="st20" d="M285.1,275.6c0,1.7-1.4,3.2-3.2,3.2c-1.7,0-3.2-1.4-3.2-3.2c0-1.8,1.4-3.2,3.2-3.2
		C283.7,272.4,285.1,273.8,285.1,275.6z"/>
</g>
<g id="eye_22_">
	<path class="st16" d="M161.7,277.4c0,10.4-8.5,18.9-18.9,18.9c-10.4,0-18.9-8.5-18.9-18.9c0-10.4,8.5-18.9,18.9-18.9
		C153.3,258.5,161.7,267,161.7,277.4z"/>
	<path class="st17" d="M160.2,277.4c0,9.6-7.8,17.3-17.3,17.3c-9.6,0-17.3-7.8-17.3-17.3c0-9.6,7.8-17.3,17.3-17.3
		C152.4,260.1,160.2,267.8,160.2,277.4z"/>
	<path class="st18" d="M155.6,277.4c0,7-5.7,12.8-12.8,12.8c-7,0-12.8-5.7-12.8-12.8c0-7,5.7-12.8,12.8-12.8
		C149.9,264.7,155.6,270.4,155.6,277.4z"/>
	<path class="st19" d="M149,277.4c0,3.4-2.8,6.2-6.2,6.2c-3.4,0-6.2-2.8-6.2-6.2c0-3.4,2.8-6.2,6.2-6.2
		C146.3,271.2,149,274,149,277.4z"/>
	<path class="st20" d="M144.1,275.6c0,1.7-1.4,3.2-3.2,3.2c-1.7,0-3.2-1.4-3.2-3.2c0-1.8,1.4-3.2,3.2-3.2
		C142.7,272.4,144.1,273.8,144.1,275.6z"/>
</g>
<g>
	<path class="st21" d="M165.3,359.7c0,0,0.3,0.2,1,0.5c0.7,0.3,1.6,0.8,2.9,1.4c2.5,1.1,6.1,2.7,10.5,4.3c2.2,0.8,4.6,1.5,7.1,2.3
		c2.6,0.7,5.3,1.4,8.1,2.1c1.4,0.3,2.9,0.6,4.3,0.9c0.7,0.1,1.5,0.2,2.2,0.3c0.7,0.1,1.5,0.2,2.2,0.3c1.5,0.2,3,0.4,4.5,0.5
		c1.5,0.1,3,0.2,4.6,0.2c1.5,0.1,3.1,0,4.6,0c1.5-0.1,3-0.1,4.5-0.2c0.7-0.1,1.5-0.2,2.2-0.2c0.7-0.1,1.5-0.1,2.2-0.2
		c0.7-0.1,1.5-0.2,2.2-0.3l1.1-0.2l1.1-0.2c2.8-0.6,5.5-1.2,8-2c1.3-0.4,2.5-0.8,3.7-1.2c1.2-0.4,2.3-0.9,3.4-1.3
		c1.1-0.4,2.1-0.9,3.1-1.3c1-0.4,1.9-0.8,2.7-1.3c1.7-0.9,3.2-1.6,4.4-2.3c2.4-1.4,3.8-2.1,3.8-2.1s-1.2,1-3.3,2.8
		c-1.1,0.9-2.5,1.8-4.1,2.9c-0.8,0.6-1.7,1.1-2.6,1.6c-0.9,0.5-1.9,1.2-3,1.7c-1.1,0.5-2.2,1.1-3.3,1.7c-1.2,0.5-2.4,1-3.7,1.5
		c-2.6,1-5.3,1.9-8.3,2.6c-2.9,0.7-6,1.3-9.2,1.6c-1.6,0.1-3.2,0.2-4.8,0.3c-1.6,0-3.2,0.1-4.8,0c-1.6-0.1-3.2-0.1-4.8-0.3
		c-1.6-0.1-3.2-0.3-4.7-0.6c-1.6-0.2-3.1-0.5-4.6-0.8c-1.5-0.4-3-0.7-4.4-1.1c-2.9-0.7-5.6-1.7-8.2-2.7c-2.6-1-4.9-2-7.1-3
		c-2.2-1-4.1-2.1-5.7-3c-1.7-1-3.1-1.9-4.2-2.6c-1.2-0.8-2-1.4-2.6-1.9C165.6,359.9,165.3,359.7,165.3,359.7z"/>
</g>
<g>
	<path class="st22" d="M190.3,381.7c0,0,0.2,0.1,0.6,0.2c0.4,0.1,0.9,0.3,1.6,0.5c1.3,0.4,3.2,0.9,5.3,1.5c1.1,0.3,2.2,0.5,3.4,0.8
		c1.2,0.3,2.5,0.5,3.7,0.7c1.3,0.2,2.6,0.3,3.9,0.4c1.3,0.1,2.7,0.2,4,0.1l1,0l1-0.1c0.7,0,1.3-0.1,2-0.1c0.3,0,0.7-0.1,1-0.1
		c0.3,0,0.7-0.1,1-0.1c0.7-0.1,1.3-0.2,2-0.3c1.3-0.2,2.5-0.4,3.7-0.7c0.6-0.1,1.2-0.3,1.8-0.4c0.6-0.1,1.1-0.2,1.7-0.4
		c1.1-0.3,2.1-0.5,3-0.8c0.9-0.3,1.7-0.4,2.4-0.6c1.3-0.4,2.2-0.5,2.2-0.5s-0.4,0.7-1.3,1.9c-0.4,0.6-1,1.2-1.7,2
		c-0.7,0.7-1.5,1.5-2.5,2.3c-1,0.8-2.1,1.6-3.3,2.3c-1.2,0.7-2.6,1.4-4.1,2c-1.5,0.6-3.1,1-4.7,1.3c-1.7,0.3-3.4,0.5-5.1,0.5
		c-1.7,0-3.4-0.1-5.1-0.4c-0.8-0.2-1.6-0.3-2.4-0.6c-0.8-0.2-1.6-0.4-2.3-0.7c-3-1.1-5.5-2.6-7.5-4.2c-1.9-1.6-3.3-3.1-4.2-4.3
		C190.6,382.4,190.3,381.7,190.3,381.7z"/>
</g>
<g>
	<path class="st15" d="M300.9,92.8c-3-0.7-0.3,79,61,167c2,3,5.3-70.3,5.3-70.3l-38.3-99.3C328.9,90.1,303.9,93.5,300.9,92.8z"/>
	<path class="st15" d="M302.6,83.8c-8,53.7-111.7,140-209.7,183.3c-4.3,3.7,70.3-55.3,70.3-55.3l91.7-116.7
		C254.9,95.1,310.6,30.1,302.6,83.8z"/>
	<path class="st15" d="M140.3,175c0,0-15,60.8-76.7,86.5c2.3-13.7,20-36.3,20-36.3L140.3,175z"/>
</g>
<path class="st23" d="M53.6,202.8c0,0-15,18-16.3,26.7c-1.3,8.7-8.3-74.7,2.7-109.7c4-17,13.8-23.6,14.2-23.8s-2.3-6.4-20.3,1.1
	C32.5,97.8,54.3,33.5,134,28.3c1.3,0,134.5-71.8,173,13.3c0.8,1.5,22-3.5,23.3-19.3c0.8-4.3,4.5,8.3-3.8,27.3c0,0,43.8-23.3,79,34.7
	c0.8,2.2-8.8-7.5-21-3c1.3,4,41.3,103,0.3,151.5c-1.1,1.6-2.3-15.9-10.8-21.9c-1.3-0.4-7.2,34.7-12.1,48.9
	c-0.3,1.4-58.3-136.3-62-167c0,0-182.5,165.7-207,174.3c0,0,46.3-45.3,47.3-88.7c-1.3-1.7-39.7,68.5-77,83.8
	C62.9,250,53.6,202.8,53.6,202.8z"/>
</svg>
