<?xml version="1.0" encoding="utf-8"?>
<!-- Generator: Adobe Illustrator 22.0.0, SVG Export Plug-In . SVG Version: 6.00 Build 0)  -->
<svg version="1.1" id="Слой_1" xmlns="http://www.w3.org/2000/svg" xmlns:xlink="http://www.w3.org/1999/xlink" x="0px" y="0px"
	 viewBox="0 0 43.9 31" style="enable-background:new 0 0 43.9 31;" xml:space="preserve">
<style type="text/css">
	.st0{fill:#5891DD;stroke:#FFFFFF;stroke-miterlimit:10;}
</style>
<path class="st0" d="M43.4,8C43.3,6.3,43,4.7,42,3.2c-1-1.6-2.3-2.6-4.2-2.7c-0.9-0.1-1.8-0.1-2.7-0.1c-9.3-0.5-18.6-0.6-27.9,0
	C6.1,0.5,5,0.6,4.1,1.2C2.1,2.5,1,4.4,0.5,6.7c-0.4,1.8-0.4,3.6-0.5,5.4c-0.2,3.4,0,6.8,0.2,10.2c0.1,1.4,0.3,2.9,1,4.2
	c1.2,2.3,2.7,4,5.6,4.1c5,0.2,10,0.4,16.6,0.5c3.6,0,8.6-0.1,13.7-0.5c0.7,0,1.5-0.2,2.1-0.6c2.3-1.3,3.5-3.4,4-5.8
	c0.3-1.6,0.3-3.3,0.4-4.9C43.8,15.5,43.7,11.8,43.4,8z M26.3,15.8c-2.4,1.6-4.8,3.2-7.2,4.8c-0.6,0.4-1.1,0.8-1.7,1.2
	c-0.1,0.1-0.1,0.1-0.3,0.1c0-4.2,0-8.3,0-12.6c0.5,0.3,1,0.7,1.5,1c2.6,1.7,5.1,3.4,7.7,5.1C26.6,15.5,26.6,15.6,26.3,15.8z"/>
</svg>
