<?xml version="1.0" encoding="utf-8"?>
<!-- Generator: Adobe Illustrator 22.0.0, SVG Export Plug-In . SVG Version: 6.00 Build 0)  -->
<svg version="1.1" id="Layer_1" xmlns="http://www.w3.org/2000/svg" xmlns:xlink="http://www.w3.org/1999/xlink" x="0px" y="0px"
	 viewBox="0 0 232.4 134.7" style="enable-background:new 0 0 232.4 134.7;" xml:space="preserve">
<style type="text/css">
	.st0{fill:#606267;}
</style>
<g>
	<path class="st0" d="M228.4,7.9c3.6,0.8,4.8,5.1,3.3,8c-1.1,2.1-2.2,4.1-3.4,6.1c-0.1,1.4-0.7,2.8-2,3.5
		c-10.1,17.8-21.7,34.7-34.9,50.5c0,0-0.1,0.1-0.2,0.2c15.2,10.5,51.6,37.3,33.8,52.4c-9.3,7.9-36.3,6.6-46.7,2.1
		c-6-2.6-11.5-7.1-16.6-11.1c-8.9-7-11.5-6.6-19.5,0.9c-10.3,9.6-16,15.7-31.3,14c-17.9-2.1-35.1-12-48.7-23.2
		C33.6,87.6,7.8,48,0.1,11.4c-0.6-2.8,1.8-5,4.2-5.1c0.1,0,0.2-0.1,0.3-0.1c13.9-2.5,29.6-3.1,43.6-1.5c1.3,0.1,2.3,0.7,3.1,1.4
		c0.4,0.1,0.8,0.4,1.1,0.8C63.6,20,68.6,37.4,80.2,50.2c5.6,6.2,7.5,5.2,8.1-3.3c0.3-3.7,0.3-7.3,0.1-11c-0.6-9.6-4-18-5.5-27.3
		c-0.2-1.3,0-2.5,0.6-3.5c0.3-2,1.9-3.8,4.3-4.2c13.6-1.8,28-0.1,41.8-0.5c2-0.5,3.6,0.2,4.7,1.6c1,0.3,1.8,1,2.1,2.2
		c2,8.5,1.8,16.7,1.7,25.4c-0.1,4.1-0.2,8.2-0.3,12.3c-0.1,2.3-0.1,4.7-0.1,7c-0.9,4.3,0.8,6,5,4.9c7.2,0.8,9.2-5.2,12.7-10.7
		c2.1-3.3,4.1-6.6,6.1-10c4.5-8,7.8-16.4,12-24.5c0.7-1.5,2-2.2,3.3-2.4c0.4-0.2,0.9-0.4,1.4-0.4C194.7,5.4,212.3,4.4,228.4,7.9z"/>
</g>
</svg>
