<?xml version="1.0" encoding="utf-8"?>
<!-- Generator: Adobe Illustrator 22.0.0, SVG Export Plug-In . SVG Version: 6.00 Build 0)  -->
<svg version="1.1" id="Слой_1" xmlns="http://www.w3.org/2000/svg" xmlns:xlink="http://www.w3.org/1999/xlink" x="0px" y="0px"
	 viewBox="0 0 44.7 32.1" style="enable-background:new 0 0 44.7 32.1;" xml:space="preserve">
<style type="text/css">
	.st0{fill:#5891DD;stroke:#FFFFFF;stroke-miterlimit:10;}
</style>
<path class="st0" d="M43.9,8.5c-0.1-1.7-0.4-3.3-1.4-4.8c-1-1.6-2.3-2.6-4.2-2.7c-0.9,0-1.8,0-2.7-0.1C26.3,0.4,17,0.3,7.7,1
	C6.6,1,5.5,1.1,4.6,1.7C2.6,3,1.5,4.9,1,7.2C0.7,9,0.7,10.8,0.6,12.6c-0.2,3.4,0,6.8,0.2,10.2c0.1,1.4,0.3,2.9,1,4.2
	c1.2,2.3,2.7,4,5.6,4.1c5,0.2,10,0.4,16.6,0.5c3.6,0,8.6-0.1,13.7-0.5c0.7,0,1.5-0.2,2.1-0.6c2.3-1.3,3.5-3.4,4-5.8
	c0.3-1.6,0.3-3.3,0.4-4.9C44.3,16,44.2,12.3,43.9,8.5z M26.8,16.3c-2.4,1.6-4.8,3.2-7.2,4.8c-0.6,0.4-1.1,0.8-1.7,1.2
	c-0.1,0.1-0.1,0.1-0.3,0.1c0-4.2,0-8.3,0-12.6c0.5,0.3,1,0.7,1.5,1c2.6,1.7,5.1,3.4,7.7,5.1C27.1,16,27.1,16.1,26.8,16.3z"/>
</svg>
