<?xml version="1.0" encoding="utf-8"?>
<!-- Generator: Adobe Illustrator 21.0.2, SVG Export Plug-In . SVG Version: 6.00 Build 0)  -->
<svg version="1.1" id="Слой_1" xmlns="http://www.w3.org/2000/svg" xmlns:xlink="http://www.w3.org/1999/xlink" x="0px" y="0px"
	 viewBox="0 0 103.1 73.3" style="enable-background:new 0 0 103.1 73.3;" xml:space="preserve">
<style type="text/css">
	.st0{fill:#FFFFFF;stroke:#358FCD;stroke-width:4;stroke-miterlimit:10;}
</style>
<path class="st0" d="M102.4,18.9c-0.3-4-1.1-7.8-3.2-11.3c-2.3-3.7-5.5-6.1-10-6.3C87,1.2,84.9,1.1,82.7,1
	C60.8-0.2,38.8-0.5,16.9,1.1c-2.5,0.2-5,0.3-7.2,1.7c-4.7,3.1-7.3,7.6-8.4,13C0.4,20,0.4,24.4,0.2,28.7c-0.4,8-0.1,16.1,0.5,24.1
	c0.3,3.4,0.7,6.7,2.3,9.8c2.7,5.4,6.5,9.4,13.1,9.7c11.8,0.5,23.7,1,39.1,1.1c8.5,0,20.4-0.3,32.3-1.1c1.8-0.1,3.5-0.4,5-1.3
	c5.3-3.1,8.2-7.9,9.4-13.8c0.8-3.8,0.8-7.8,1-11.7C103.3,36.6,103,27.7,102.4,18.9z M62.1,37.2c-5.7,3.7-11.3,7.5-17,11.3
	c-1.4,0.9-2.7,1.8-4,2.7c-0.2,0.1-0.3,0.3-0.6,0.2c0-9.8,0-19.7,0-29.7c1.2,0.8,2.4,1.6,3.6,2.3c6,4,12,8,18.1,12
	C62.7,36.6,62.9,36.8,62.1,37.2z"/>
</svg>
