<?xml version="1.0" encoding="utf-8"?>
<!-- Generator: Adobe Illustrator 21.0.2, SVG Export Plug-In . SVG Version: 6.00 Build 0)  -->
<svg version="1.1" id="Capa_1" xmlns="http://www.w3.org/2000/svg" xmlns:xlink="http://www.w3.org/1999/xlink" x="0px" y="0px"
	 viewBox="0 0 512 512" style="enable-background:new 0 0 512 512;" xml:space="preserve">
<style type="text/css">
	.st0{fill:#7DAAE7;}
</style>
<g>
	<g>
		<path class="st0" d="M254.5,0C114.1,0,0,114.1,0,254.5C0,395.3,113.9,512,254.5,512c56.9,0,114.4-19.1,157.8-52.4
			c10.1-7.8,12-22.3,4.3-32.4c-7.8-10.1-22.3-12-32.4-4.3c-35.5,27.2-82.8,43.2-129.7,43.2C139.7,466,46.3,371,46.3,254.5
			C46.3,139.7,139.7,46,254.5,46c116.5,0,211.3,93.7,211.3,208.5v23.1c0,25.5-20.8,46.3-46.3,46.3s-46.3-20.8-46.3-46.3
			c0-11.5,0-103.6,0-115.7c0-12.8-10.4-23.1-23.1-23.1c-12.8,0-23.1,10.4-23.1,23.1v1.5c-20.9-15.9-46.2-24.6-72.5-24.6
			c-63.8,0-115.7,51.9-115.7,115.7s51.9,115.7,115.7,115.7c34.6,0,66.4-14.8,89-39.8c16.7,24,44.5,39.8,76,39.8
			c51,0,92.5-41.5,92.5-92.5v-23.1C512,113.7,395.1,0,254.5,0z M254.5,324.2c-38.3,0-69.4-31.4-69.4-69.7s31.1-69.7,69.4-69.7
			c39.3,0,72.5,32.1,72.5,69.7S293.7,324.2,254.5,324.2z"/>
	</g>
</g>
</svg>
