<?xml version="1.0" encoding="utf-8"?>
<!-- Generator: Adobe Illustrator 21.0.2, SVG Export Plug-In . SVG Version: 6.00 Build 0)  -->
<svg version="1.1" id="Слой_1" xmlns="http://www.w3.org/2000/svg" xmlns:xlink="http://www.w3.org/1999/xlink" x="0px" y="0px"
	 viewBox="0 0 855.5 856.1" style="enable-background:new 0 0 855.5 856.1;" xml:space="preserve">
<style type="text/css">
	.st0{fill:#7DAAE7;}
</style>
<g>
	<path class="st0" d="M428,0C192.1,0,0,192.1,0,428c0,236.1,191.9,428,428,428c14.6,0,26.4-11.8,26.4-26.3
		c0-14.6-11.8-26.4-26.4-26.4C221.1,803.4,52.8,634.9,52.8,428C52.8,221.1,221.1,52.9,428,52.9c206.9,0,375.2,168.2,375.2,375.2
		c0,86.5-46.1,172.2-111.9,208.6c-23.9,13-49.9,19.6-77.5,19.8c16.6-9.8,31-23.2,41.7-40c2-3.2,4.8-5.9,6.1-9.5
		c8.7-20.6,9.5-44.2,14.6-65.9c6.4-27.9-122.1-82.4-133.2-47.6c-4.1,12.9-10.2,53.8-18.3,64.5c-7.3,9.6-25,5-36.1-4.5
		c-29.3-25-61.9-61.6-90.6-90.6c-0.8-0.8-1.6-1.6-2.4-2.3c-0.8-0.9-1.7-1.7-2.4-2.4c-28.9-28.7-65.6-61.3-90.6-90.6
		c-9.5-11.1-14-28.9-4.4-36.1c10.8-8.2,51.5-14.3,64.4-18.3c34.8-11.1-19.7-139.7-47.6-133.2c-21.8,5-45.3,5.9-65.9,14.4
		c-3.6,1.4-6.3,4.1-9.5,6.3c-73.3,46.5-82.8,159.5-11.1,243.5c27.3,32.1,55.7,63.4,84.9,93.7l-0.1,0.1c0.8,0.8,1.7,1.5,2.5,2.3
		c0.9,0.9,1.6,1.6,2.3,2.6l0.3-0.1c30.3,29.3,66.4,72.4,124.9,111.4c123.4,82.3,217.9,59.4,273.6,28.8
		c96.2-53,139.2-166.1,139.2-254.8C856.1,192.1,664,0,428,0L428,0z M428,0"/>
</g>
</svg>
