<?xml version="1.0" encoding="utf-8"?>
<!-- Generator: Adobe Illustrator 21.0.2, SVG Export Plug-In . SVG Version: 6.00 Build 0)  -->
<svg version="1.1" id="Слой_1" xmlns="http://www.w3.org/2000/svg" xmlns:xlink="http://www.w3.org/1999/xlink" x="0px" y="0px"
	 viewBox="0 0 685 150" style="enable-background:new 0 0 685 150;" xml:space="preserve">
<style type="text/css">
	.st0{fill:#FFFFFF;}
	.st1{fill:#FFFFFF;}
	.st2{fill:#FFFFFF;}
	.st3{fill:#C24F56;}
	.st4{fill:#00ABD1;}
	.st5{fill:#27A7D2;}
	.st6{fill:#E73237;}
	.st7{fill:#F4981D;}
	.st8{fill:#EBE200;}
	.st9{fill:#73B73D;}
	.st10{fill:#00A8D9;}
	.st11{fill:#1F4697;}
	.st12{fill:#6C388D;}
	.st13{fill:#B7CE5D;}
	.st14{fill:#0074BD;}
	.st15{fill:#E9E100;}
	.st16{fill:#AC569C;}
	.st17{fill:#233983;}
	.st18{fill:#7EBB46;}
	.st19{fill:#4F2774;}
	.st20{fill:#A24895;}
	.st21{fill:#007AB9;}
	.st22{fill:#E59C38;}
	.st23{fill:#EB5D44;}
	.st24{fill:#744172;}
	.st25{fill:#00A0D0;}
	.st26{fill:#ECEEB3;}
	.st27{fill:#BACC70;}
	.st28{fill:#D8E6B4;}
	.st29{fill:#CD2527;}
	.st30{fill:#A52C59;}
	.st31{fill:#9D333E;}
	.st32{fill:#9CC266;}
	.st33{fill:#DA5965;}
	.st34{fill:#39441A;}
	.st35{fill:#CED08F;}
	.st36{fill:#C3A6A5;}
	.st37{fill:#0097A3;}
	.st38{fill:#F6C100;}
	.st39{fill:#EC632B;}
	.st40{fill:#EA5836;}
	.st41{fill:#F3932B;}
	.st42{fill:#EE765F;}
	.st43{fill:#A64895;}
	.st44{fill:#0074A8;}
	.st45{fill:#F28F38;}
	.st46{fill:#AE1917;}
	.st47{fill:none;}
	.st48{fill:#AA191B;}
	.st49{fill:#A9589E;}
	.st50{fill:#009E9C;}
	.st51{fill:#B64291;}
	.st52{fill:#A5338A;}
	.st53{fill:#C04190;}
	.st54{fill:#A62585;}
	.st55{fill:#A54B97;}
	.st56{fill:#861F81;}
	.st57{fill:#884A97;}
	.st58{fill:#7C3D90;}
	.st59{fill:#874795;}
	.st60{fill:#7E398D;}
	.st61{fill:#654193;}
	.st62{fill:#603A8E;}
	.st63{fill:#6B4595;}
	.st64{fill:#693E90;}
	.st65{fill:#614394;}
	.st66{fill:#603A8F;}
	.st67{fill:#554193;}
	.st68{fill:#543A8F;}
	.st69{fill:#0088CE;}
	.st70{fill:#0081AE;}
	.st71{fill:#00A4D3;}
	.st72{fill:#00829D;}
	.st73{fill:#009D96;}
	.st74{fill:#007E77;}
	.st75{fill:#00A2A6;}
	.st76{fill:#00A28B;}
	.st77{fill:#009C7B;}
	.st78{fill:#009E52;}
	.st79{fill:#009953;}
	.st80{fill:#009F3C;}
	.st81{fill:#009840;}
	.st82{fill:#8DBF22;}
	.st83{fill:#84A328;}
	.st84{fill:#CECE00;}
	.st85{fill:#B4B012;}
	.st86{fill:#D0C500;}
	.st87{fill:#E4B100;}
	.st88{fill:#F7A403;}
	.st89{fill:#E18C03;}
	.st90{fill:#F28B0E;}
	.st91{fill:#E87606;}
	.st92{fill:#EF7929;}
	.st93{fill:#EB6209;}
	.st94{fill:#EA5930;}
	.st95{fill:#E73E17;}
	.st96{fill:#E62F1F;}
	.st97{fill:#D02417;}
	.st98{fill:#E61F58;}
	.st99{fill:#CB0F50;}
	.st100{fill:#D41E6C;}
	.st101{fill:#B71A62;}
	.st102{fill:#DB2A88;}
	.st103{fill:#C52084;}
	.st104{fill:#A43089;}
	.st105{fill:#B0388C;}
	.st106{fill:#943C8E;}
	.st107{fill:#7C4293;}
	.st108{fill:#814091;}
	.st109{fill:#5E358B;}
	.st110{fill:#683F91;}
	.st111{fill:#5C3A8E;}
	.st112{fill:#50398E;}
	.st113{fill:#0072A0;}
	.st114{fill:#0090B1;}
	.st115{fill:#00A2A5;}
	.st116{fill:#008E87;}
	.st117{fill:#009891;}
	.st118{fill:#009D7C;}
	.st119{fill:#009C57;}
	.st120{fill:#009C3D;}
	.st121{fill:#92B722;}
	.st122{fill:#C9C300;}
	.st123{fill:#E3D000;}
</style>
<g>
	<path class="st0" d="M206.4,11.1c10,0,15.1,2.6,18.5,5.4c5.6,4.6,7.2,10.8,7.2,16.2c0,7-2.8,13.2-8.5,17c-1.9,1.3-4.5,2.5-8,3.1
		l22.7,30.3h-17.7l-19.4-28.9h-1.7v28.9h-14.2v-72L206.4,11.1L206.4,11.1z M199.6,44.4h4c2.7,0,13.9-0.3,13.9-10.9
		c0-10.7-11.1-10.8-13.7-10.8h-4.3v21.7H199.6z"/>
	<path class="st0" d="M291,68h-29.3l-6.4,15.1h-15.4l31.3-72h11.1l30.4,72h-15.3L291,68z M286.8,56.6l-10.3-25.9l-10.4,25.9H286.8z"
		/>
	<path class="st0" d="M335.3,11.1v72h-14.2v-72L335.3,11.1L335.3,11.1z"/>
	<path class="st0" d="M351.9,83.3v-72h9.8l44.2,48.1V11.3h14.2v72h-9.8L366.1,35v48.2H351.9z"/>
	<path class="st0" d="M454.7,11.1c4,0,11.9,0,17.8,4.5c4.3,3.2,6.8,8.9,6.8,14.9c0,9.3-6.2,13.1-8.2,14.1c4.8,0.8,7.6,2.8,9.5,4.5
		c4.4,4.1,5.2,9.7,5.2,13.5c0,4.2-1.2,10.2-6.2,14.6c-5.4,4.8-12.1,5.8-18.4,5.8h-24.4V11h17.9V11.1z M450.9,41h4
		c2.2,0,11-0.2,11-9.4c0-6.6-5.1-9.1-10.9-9.1h-4.1V41z M450.9,71.8h6.1c2.6,0,6.5-0.1,9.7-1.9c3.5-2.1,4.5-5.5,4.5-8.3
		c0-2.3-0.8-6.2-5.3-8.2c-3.1-1.4-6.6-1.4-9.7-1.4H451L450.9,71.8L450.9,71.8z"/>
	<path class="st0" d="M572.9,47.3c0,21.9-15.9,37.6-38.8,37.6c-22.9,0-38.8-15.7-38.8-37.6s15.9-37.7,38.8-37.7
		C557,9.5,572.9,25.4,572.9,47.3z M558.3,47.3c0-14.6-10-24.9-24.2-24.9s-24.2,10.4-24.2,24.9s10,24.8,24.2,24.8
		S558.3,61.9,558.3,47.3z"/>
	<path class="st0" d="M615.1,83.3h-10.7l-25.3-72h15l16.2,49l17.8-49.7h7.8l16.8,49.7l17.4-49h15l-26.9,72h-10.7l-15.7-45.7
		L615.1,83.3z"/>
</g>
<g>
	<path class="st1" d="M184.4,110.2v30H181v-30H184.4z"/>
	<path class="st1" d="M191.4,121.5h3.3v2.2c0.6-0.8,2.3-2.6,5.4-2.6c2.2,0,4.3,0.9,5.4,2.6c1,1.4,1.1,2.9,1.1,5v11.6h-3.3v-11.5
		c0-1.1-0.1-2.4-0.9-3.4c-0.6-0.8-1.6-1.3-3.1-1.3c-1.1,0-2.4,0.3-3.3,1.4c-1.3,1.5-1.4,3.7-1.4,5v9.8h-3.3L191.4,121.5L191.4,121.5
		z"/>
	<path class="st1" d="M212.7,121.5h3.3v2.2c0.6-0.8,2.3-2.6,5.4-2.6c2.2,0,4.3,0.9,5.4,2.6c1,1.4,1.1,2.9,1.1,5v11.6h-3.3v-11.5
		c0-1.1-0.1-2.4-0.9-3.4c-0.6-0.8-1.6-1.3-3.1-1.3c-1.1,0-2.4,0.3-3.3,1.4c-1.3,1.5-1.4,3.7-1.4,5v9.8h-3.3L212.7,121.5L212.7,121.5
		z"/>
	<path class="st1" d="M232.9,130.8c0-5.7,4.2-9.9,10-9.9s10,4.2,10,9.9s-4.3,9.8-10,9.8S232.9,136.5,232.9,130.8z M236.2,130.8
		c0,4.6,3.3,6.9,6.6,6.9c3.4,0,6.6-2.4,6.6-6.9c0-4.6-3.2-7-6.6-7S236.2,126.3,236.2,130.8z"/>
	<path class="st1" d="M258.8,121.5l5.6,12.6l5.6-12.6h3.6l-9.3,19.9l-9.3-19.9H258.8z"/>
	<path class="st1" d="M291.5,121.5h3.3v18.7h-3.3v-2.6c-1.1,1.4-3.1,3.2-6.4,3.2c-4.8,0-9.2-3.3-9.2-9.9c0-6.4,4.4-9.8,9.2-9.8
		c3.6,0,5.6,2,6.4,3.1V121.5z M279.3,130.8c0,4,2.3,7,6.2,7c4,0,6.3-3.3,6.3-7c0-4.8-3.4-6.9-6.3-6.9
		C282.2,124,279.3,126.3,279.3,130.8z"/>
	<path class="st1" d="M304.4,124.5v15.7h-3.3v-15.7h-2v-3h2v-6.7h3.3v6.7h3.3v3H304.4z"/>
	<path class="st1" d="M312.3,112.2c1.3,0,2.3,1,2.3,2.3s-1,2.3-2.3,2.3s-2.3-1-2.3-2.3S311.1,112.2,312.3,112.2z M314,121.5v18.7
		h-3.3v-18.7H314z"/>
	<path class="st1" d="M321.1,121.5l5.6,12.6l5.6-12.6h3.6l-9.3,19.9l-9.3-19.9H321.1z"/>
	<path class="st1" d="M356.1,135.3c-0.5,1-1.4,2.2-2.3,3c-1.7,1.5-3.9,2.3-6.3,2.3c-4.5,0-9.3-2.8-9.3-9.8c0-5.6,3.5-9.9,9.1-9.9
		c3.7,0,6,1.8,7.1,3.4c1.2,1.7,1.9,4.5,1.8,7h-14.7c0,3.9,2.7,6.3,6,6.3c1.5,0,2.8-0.5,3.9-1.4c0.9-0.7,1.5-1.7,2-2.6L356.1,135.3z
		 M352.9,128.8c-0.5-2.9-2.8-4.9-5.5-4.9s-5,2.1-5.5,4.9H352.9z"/>
	<path class="st1" d="M388.4,113.3H376v8.9h12v3.1h-12V137h12.4v3.1h-15.7v-30h15.7V113.3z"/>
	<path class="st1" d="M408.2,107.3h3.3v32.8h-3.3v-2.6c-1.1,1.4-3.1,3.2-6.4,3.2c-4.8,0-9.2-3.3-9.2-9.9c0-6.4,4.4-9.8,9.2-9.8
		c3.6,0,5.6,2,6.4,3.1V107.3z M395.9,130.8c0,4,2.3,7,6.2,7c4,0,6.3-3.3,6.3-7c0-4.8-3.4-6.9-6.3-6.9
		C398.9,124,395.9,126.3,395.9,130.8z"/>
	<path class="st1" d="M420.9,132.3c0,1.3,0,2.8,0.9,4c0.5,0.6,1.5,1.4,3.3,1.4s2.8-0.8,3.3-1.4c0.9-1.2,0.9-2.7,0.9-4v-10.9h3.3
		v11.3c0,2.3-0.2,4-1.7,5.6c-1.7,1.8-3.9,2.3-5.8,2.3s-4.1-0.6-5.8-2.3c-1.5-1.6-1.7-3.3-1.7-5.6v-11.3h3.3V132.3z"/>
	<path class="st1" d="M453.5,126.7c-1.7-2.2-4.2-2.8-5.9-2.8c-3.5,0-6.7,2.4-6.7,7s3.3,6.9,6.6,6.9c2,0,4.4-0.9,6.1-2.9v3.9
		c-2,1.5-4.2,1.9-6,1.9c-5.9,0-10.1-4.1-10.1-9.8s4.3-9.9,10.1-9.9c3,0,4.9,1.2,5.9,1.8L453.5,126.7L453.5,126.7z"/>
	<path class="st1" d="M473.1,121.5h3.3v18.7h-3.3v-2.6c-1.1,1.4-3.1,3.2-6.4,3.2c-4.8,0-9.2-3.3-9.2-9.9c0-6.4,4.4-9.8,9.2-9.8
		c3.6,0,5.6,2,6.4,3.1V121.5z M460.8,130.8c0,4,2.3,7,6.2,7c4,0,6.3-3.3,6.3-7c0-4.8-3.4-6.9-6.3-6.9
		C463.8,124,460.8,126.3,460.8,130.8z"/>
	<path class="st1" d="M485.9,124.5v15.7h-3.3v-15.7h-2v-3h2v-6.7h3.3v6.7h3.3v3H485.9z"/>
	<path class="st1" d="M493.9,112.2c1.3,0,2.3,1,2.3,2.3s-1,2.3-2.3,2.3s-2.3-1-2.3-2.3S492.6,112.2,493.9,112.2z M495.5,121.5v18.7
		h-3.3v-18.7H495.5z"/>
	<path class="st1" d="M500.5,130.8c0-5.7,4.2-9.9,10-9.9c5.8,0,10,4.2,10,9.9s-4.3,9.8-10,9.8C504.8,140.7,500.5,136.5,500.5,130.8z
		 M503.9,130.8c0,4.6,3.3,6.9,6.6,6.9c3.4,0,6.6-2.4,6.6-6.9c0-4.6-3.2-7-6.6-7C507.1,123.8,503.9,126.3,503.9,130.8z"/>
	<path class="st1" d="M525.5,121.5h3.3v2.2c0.6-0.8,2.3-2.6,5.4-2.6c2.2,0,4.3,0.9,5.4,2.6c1,1.4,1.1,2.9,1.1,5v11.6h-3.3v-11.5
		c0-1.1-0.1-2.4-0.9-3.4c-0.6-0.8-1.6-1.3-3.1-1.3c-1.1,0-2.4,0.3-3.3,1.4c-1.3,1.5-1.4,3.7-1.4,5v9.8h-3.3L525.5,121.5L525.5,121.5
		z"/>
	<path class="st1" d="M571.8,116c-0.4-0.8-1.1-1.7-1.8-2.3c-0.6-0.5-1.7-1-3.4-1c-3,0-5.1,1.8-5.1,4.6c0,1.2,0.3,1.8,1.1,2.6
		c0.9,0.9,2,1.4,3.2,1.9l2.9,1.3c1.8,0.8,3.4,1.6,4.7,2.8c1.5,1.5,2.2,3.3,2.2,5.4c0,5.5-4.1,9.2-9.6,9.2c-2,0-4.5-0.4-6.6-2.4
		c-1.5-1.4-2.4-3.5-2.8-5.3l3.3-0.9c0.2,1.6,1,2.9,1.8,3.8c1.3,1.3,2.8,1.7,4.4,1.7c4.1,0,6.1-2.9,6.1-5.9c0-1.3-0.4-2.5-1.5-3.5
		c-0.9-0.8-2-1.3-3.6-2.1l-2.7-1.3c-1.2-0.5-2.7-1.2-4-2.5s-2.1-2.7-2.1-4.9c0-4.6,3.6-7.7,8.5-7.7c1.9,0,3.4,0.4,4.9,1.3
		c1.2,0.8,2.3,2,3,3.3L571.8,116z"/>
	<path class="st1" d="M595.7,126.7c-1.7-2.2-4.2-2.8-5.9-2.8c-3.5,0-6.7,2.4-6.7,7s3.3,6.9,6.6,6.9c2,0,4.4-0.9,6.1-2.9v3.9
		c-2,1.5-4.2,1.9-6,1.9c-5.9,0-10.1-4.1-10.1-9.8s4.3-9.9,10.1-9.9c3,0,5,1.2,5.9,1.8L595.7,126.7L595.7,126.7z"/>
	<path class="st1" d="M600.9,107.3h3.3v16.3c0.6-0.8,2.3-2.6,5.4-2.6c2.2,0,4.3,0.9,5.4,2.6c1,1.4,1.1,2.9,1.1,5v11.6h-3.3v-11.5
		c0-1.1-0.1-2.4-0.9-3.4c-0.6-0.8-1.6-1.3-3.1-1.3c-1.1,0-2.4,0.3-3.3,1.4c-1.3,1.5-1.4,3.7-1.4,5v9.8h-3.3L600.9,107.3L600.9,107.3
		z"/>
	<path class="st1" d="M620.3,130.8c0-5.7,4.2-9.9,10-9.9s10,4.2,10,9.9s-4.3,9.8-10,9.8S620.3,136.5,620.3,130.8z M623.7,130.8
		c0,4.6,3.3,6.9,6.6,6.9c3.4,0,6.6-2.4,6.6-6.9c0-4.6-3.2-7-6.6-7S623.7,126.3,623.7,130.8z"/>
	<path class="st1" d="M644.1,130.8c0-5.7,4.2-9.9,10-9.9s10,4.2,10,9.9s-4.3,9.8-10,9.8S644.1,136.5,644.1,130.8z M647.5,130.8
		c0,4.6,3.3,6.9,6.6,6.9c3.4,0,6.6-2.4,6.6-6.9c0-4.6-3.2-7-6.6-7S647.5,126.3,647.5,130.8z"/>
	<path class="st1" d="M672.4,107.3v32.8h-3.3v-32.8H672.4z"/>
</g>
<g>
	<g>
		
			<image style="overflow:visible;opacity:0.25;enable-background:new    ;" width="708" height="708" xlink:href="3EEF376F.png"  transform="matrix(0.2386 0 0 0.2386 -6.2452 -7.8773)">
		</image>
		<g>
			<rect x="9.4" y="7.8" class="st2" width="137.7" height="137.7"/>
		</g>
	</g>
	<g>
		<g>
			<path class="st3" d="M97.9,106.5c0.2,0.3,2.2,3.3,2.3,3.5c-1.3,2-5.1-0.4-5.3-1.6C94.9,108.2,97.1,107,97.9,106.5z"/>
			<path class="st4" d="M28.9,82.5l0.1-0.1C29,82.3,28.9,82.3,28.9,82.5L28.9,82.5z"/>
			<path class="st5" d="M35.2,68.1c0,0-0.7,0.2,0.5-0.5c2.9-1.7,6-0.2,6.1,2.7c0.1,3.3,4.6,4.2,5,4.2c-0.1,0.4-0.3,0.7-0.4,1.1
				c0.6,0.1-2.7,0.7-5.8-6.6C39.5,66.5,35.8,67.5,35.2,68.1z"/>
			<polygon class="st6" points="34.9,67.9 30.2,65.8 29.8,66.1 34.5,68 			"/>
			<polygon class="st7" points="34.9,67.9 29.5,67 29.5,67.5 34.9,68.1 			"/>
			<polygon class="st8" points="34.9,67.9 29.5,68.5 29.5,69 34.9,68.1 			"/>
			<polygon class="st9" points="34.9,67.9 30.1,69.8 30.4,70 34.9,68.1 			"/>
			<polygon class="st10" points="34.9,67.9 30.8,70.5 31.2,71 34.9,68.1 			"/>
			<polygon class="st11" points="34.9,67.9 31.9,71.5 32.4,71.5 35.2,68.1 			"/>
			<polygon class="st12" points="34.9,68 33.2,71.5 34,71.5 35.2,68.1 			"/>
			<path class="st6" d="M80.2,58.8c0.2,0.7,0,1.2,0.2,1.9c0.2,1.2-0.3,1.8,0.9,2.8c0.6,0.5,1.3,0.9,1.9,1.4c0.5,0.9,0.6,1.6,0.1,2.6
				s-0.3,2,0.8,3c0.3,0.5,1.9,0.5,2.1,0.9c0.4,1,3.3,3.8,4.7,5.4c1.1,1.2,1.6,2.3,2.9,3.4c1.6,1.5,3.1,1.9,3.7,2.2l0.9,2.9
				c0,0,5.3,1.2,5.4,1.4c0.2,0.8,1.7,2.9,1.7,2.9c2.6,5.5,3.4,4.4,0.6,9.5c-0.9,1.5-4.2,6-4.5,7.8c-1.3,4.6-2,2.7-2,2.7
				c-1.3-1.5-2-1.8-2.1-2.6c0.1-0.5,4.9-6.7,5.1-11.2c0.1-2.5-4.5-5.1-6-6.2c-2.1-1.2-7.5-5.8-7.9-6c-0.1-0.2-8.5-5.7-7.4-8.5
				c0.4-1-0.6-1.7-1.3-1.9c-3.5-0.9-2.5-3.3-2.1-5.6c0.2-1.2,0.2-2.1-1.3-2.1c-1.5,0.1-2.1-0.9-2.6-2c-0.1-0.3-0.8-1.7-0.8-1.7
				S79.2,59.4,80.2,58.8z"/>
			<path class="st13" d="M121.3,49.5c-0.3,0-0.6,0.1-0.9,0.1c-0.7,0.1-1.3-0.2-1.9,0.8c-1.2,1-2.5,2-2.1,3.8c-0.1,0-0.1,0-0.2,0
				c-1.2-0.1-2.2-0.8-3.4-0.9c-1.8-0.5-3.7-0.4-5.5-0.8c-3.2-2.1-7.2-3.3-8-7.8c-0.3-1.7,1-3,0.5-4.6c0-0.2,0-0.4,0-0.5
				c0.3-0.1,0.5-0.1,0.8-0.2c0.2-0.3,0.3-0.6,0.5-0.9c0.9-0.6,0.6-0.6,1.3-1.2c0.4,2,1.6,1.2,2.9,0.8c0.1,0,0.2,0,0.4,0
				c1.4,0.5,2.7,0.9,4.1,1.4c1.4,0.8,3.7,3.5,3.3,4.3c-0.2,0.4-1,1-0.6,1.6c0.5,0.7,1.4,0,1.9-0.2c0.3-0.2,0.2-0.2,0.7,0.1
				C116.8,46.4,119.1,48.4,121.3,49.5z M106.4,45.6c-0.1-0.7-0.5-0.8-1-0.8c-0.4,0-1,0.1-0.8,0.7c0.1,0.3,0.6,0.7,0.9,0.7
				C105.8,46.3,106.1,45.9,106.4,45.6z"/>
			<path class="st14" d="M100.8,80c0.8,1.7,1.5,3.4,2.3,5c-0.4,0-2.8,0.4-3.6-0.3c-1-0.9,0-2.5-1.6-3.8c-1-0.7-3.6-0.5-4.5-1.1
				c-1.7-1.1-0.2-2.3-1.5-3.7c-0.7-0.8-2.9-0.1-3.6-0.9c-1.2-1.5,0.4-2.5-0.5-4c-0.6-1.1-3.1-0.6-3.7-1.7c-0.7-1.4,1-2,0.5-3.8
				c-0.4-1.4-2.7-2.4-3.4-3.8c-0.9-1.8-0.4-3-0.4-3.4c1.9-0.5,3.3-1.5,4.8-2.7c0.6,6.8,4.4,9.7,9.2,14.2c2,1.9,5.9,2.4,5.8,6.2
				C100.6,77.5,99.5,78.8,100.8,80z"/>
			<path class="st15" d="M52.6,70c1.3-0.7,4.4-2.2,4.7-2.3c0.1,0,0.3,0.1,0.4,0.1c0.2,0.8,0.7,1.2,1.5,1.4c0.1,0,0.3,0.5,0.4,0.7
				c0,0.6,0.2,1.1,0,1.8c-0.3,0.7-0.5,1.5-0.8,2.2c1,0.4,2,0.7,2.9,1.1c0.2,0.2,0.7,0.4,0.8,0.7c0.3,0.7,0.6,1.9,0.3,2.6
				c-0.4,0.9,1.5,2.1,1,3.3c0.1,0,0.1,0.1,0.2,0.1c-2.3,1.7-5.3,3.5-7.3,5.8c0-0.7-3.7-0.5-4-1.2c-0.4-0.9-0.1-2.7,0.6-3.4
				c-2.1-0.9-4.9-0.1-6.2-2.7c-0.4-1.4,0-4.8,0.5-6.2c1.2-1,1.2-1,2.7-2.2c0.4-0.3,0.8-0.6,1.2-0.9C51.9,70.4,52.3,70.1,52.6,70z"/>
			<path class="st12" d="M94.7,46.6c0,0,0.3,5.3,1,8c0.8,1.9,1.5,3.8,2.3,5.6c1.4,3,3.5,5.8,3.9,9.2c0,0.6,0.1,1.4,0.1,2
				c-0.8,0.2-1,0.7-1.2,1.3c-0.5-0.4-1-0.8-1.6-1.1c-5.7-4.4-10.7-9.4-12.4-16.7C87.4,54.4,92.4,51.3,94.7,46.6z"/>
			<path class="st12" d="M101,38.5c-0.2,0.3-0.3,0.6-0.5,0.9c-2-3.5-4.6-6.2-8.8-6.8c-2.2-2.8-2.5-6.5-2.2-9.9
				C92,28.8,100.9,26.6,101,38.5z"/>
			<path class="st7" d="M105.3,38c-1.3,0.5-2.5,1.3-2.9-0.8c-0.6-10.4,5.3-6.8,8.6-15.8c2.6,3.4,0.4,7.6,0.2,7.8
				c-0.1,0-0.1-0.1-0.2-0.1c-0.2-0.1-0.4-0.2-0.6,0l0,0c-2.7,2.1-4.5,5-6.1,7.9c-0.6,1.1,0.6,0.6,1,0.7V38z"/>
			<path class="st16" d="M106.7,57.5c-0.7,3.1-1.4,6.3-2.2,9.4c-0.2,0.5-0.5,0.9-0.7,1.4c-0.1-0.4-0.2-0.7-0.4-1.1
				c-0.1-1.8-1.1-3.3-2.1-4.7c-2.5-3.9-4.8-8-5.4-12.7c-0.3-2.3,0-5.5,0-5.5c0.4-0.2,1.6-3.1,1.9-3.3c0.2,1.3,0,3.1,0.2,4.4
				c0.6,2.9,2.4,4.4,4.2,6.9c1.1,1,2.2,1.9,3.3,2.9C106,56.1,106.4,56.9,106.7,57.5z"/>
			<path class="st12" d="M42.4,88.8c-0.4-2.5,0-4.9,0.6-7.3c0.1-0.4,0.3-0.7,0.4-1.1c0.3-0.7,0.6-1.5,0.9-2.2
				c0.6,3.4,2.6,4.3,6.1,5.7c0.2,0.1,0.3,0.3,0.4,0.4c-0.8,3.1,2.9,4.4,2.9,7.2c-0.5,1-1.8,3.9-2.1,4.4C49.5,92.8,46.4,89,42.4,88.8
				z"/>
			<path class="st17" d="M86.9,55c1.7,7.3,6.7,12.3,12.4,16.7c0.5,0.4,1,0.8,1.6,1.1c-0.1,1.2,0.3,2.4-0.3,3.5
				c0.1-3.9-3.7-4.3-5.8-6.2c-4.8-4.5-9.2-7.3-9.2-14.2C86.4,55.4,86.1,55.6,86.9,55z"/>
			<path class="st18" d="M99.7,39.5c0.9,1.6-0.8,3.5-0.5,5.1c0.8,4.6,4.8,5.7,8,7.8c-0.1,1-0.1,1.9-0.2,2.9c-0.5,0-0.9,0-1.4,0
				c-1.1-1-2.2-1.9-3.3-2.9c-3.4-3.3-5.1-6.7-4.4-11.3L99.7,39.5z"/>
			<path class="st19" d="M91.7,32.5c4.2,0.7,6.9,3.3,8.8,6.8c-0.3,0.1-0.5,0.1-0.8,0.2C96.3,38,93.5,35.8,91.7,32.5z"/>
			<path class="st20" d="M50.4,84c-3.7,0.9-5.5-2.4-6.1-5.7c0.4-0.8,2.5-3.8,3.3-4.5c1.1,1.1-1,4.4-0.5,6.2c1.3,2.6,6.1,0.4,6.2,2.7
				c0,0.3-0.3,0.6-0.5,1C52.1,83.8,51.1,83.8,50.4,84z"/>
			<path class="st21" d="M65.4,64.1c0.6-0.2,1.2-0.4,1.8-0.6c0.1,0.4,0.3,0.8,0.4,1.2c0.4,4.9,2.8,9.5,2.5,14.5
				c-0.1,0-0.3,0.1-0.4,0.1c-0.2-0.3-0.5-0.5-0.7-0.8c0.2-3.1-0.7-5.9-1.8-8.7c-0.1-0.2-0.2-0.5-0.4-0.7c0-0.1,0-0.2,0-0.3
				C66.4,67.3,65.9,65.6,65.4,64.1z"/>
			<path class="st22" d="M67.6,64.8c-0.1-0.4-0.3-0.8-0.4-1.2c1.7-0.5,3.4-1.1,5.1-1.6c0,0.4,0,0.9,0,1.3c-0.3-0.2-0.7-1.2-1,0
				c-0.7,0-1.2,8.6-0.2,11.3c0.5,1.4,0.2,3.4,2.1,4c-0.8,0.2-1.6,0.4-2.4,0.6C70.7,74.1,69.3,69.5,67.6,64.8z"/>
			<path class="st23" d="M105.6,38c-0.1,0-0.2,0-0.4,0v-0.1c0.8-1.4,1.5-3,2.5-4.2c1.2-1.4,2.6-2.5,2.6-4.4l0,0
				c0.1-0.1,0.3-0.2,0.6,0c0.1,0,0.1,0.1,0.2,0.1c-0.6,2.5-0.9,4.4-3.8,7.2l0,0c-0.5,0.4-0.9,0.8-1.4,1.2
				C105.9,37.8,105.8,38,105.6,38z"/>
			<path class="st24" d="M122.8,50c-3.1,0-4.9,2.1-6.5,4.3c-0.3-1.8,0.9-2.8,2.1-3.8c0.6-0.3,1.3-0.6,1.9-0.8c0.3,0,0.6-0.1,0.9-0.1
				C121.8,49.6,122.3,49.8,122.8,50z"/>
			<path class="st25" d="M62.5,65.5c-0.2,0-0.3-0.1-0.5-0.1c1.1-0.5,2.2-0.9,3.4-1.4c0.5,1.6,1,3.1,1.5,4.7
				c-0.2-0.1-0.5-0.2-0.7-0.4C65.3,67,65.3,64.5,62.5,65.5z"/>
			<path class="st26" d="M107,55.4c0.1-1,0.1-1.9,0.2-2.9c1.8,0.5,3.7,0.4,5.5,0.8c-0.4,0-3.2,0.9-4.9,0.6c-0.2,0.7-0.5,1.5-0.7,2.2
				C107.1,55.9,107,55.6,107,55.4z"/>
			<path class="st27" d="M114.8,45c-0.7,0.4-0.8,0.4-1.1,0.6c-0.5,0.3-1,0.7-1.5,0c-0.4-0.6,0.3-0.9,0.3-1.4
				c0.1-0.5,0.2-0.4,0.4-1.2C113.4,44,113.4,44,114.8,45z"/>
			<path class="st26" d="M110.6,53.8c0.4,0,1.8-0.5,2.2-0.5c1.2,0.1,2.2,0.8,3.4,0.9c0.6-0.1,0.1,0.3,0.2,0.4
				C114.7,54.5,112.7,54.4,110.6,53.8z"/>
			<path class="st28" d="M52.6,70c-0.4,0.2-0.7,0.5-1.1,0.7"/>
			<path class="st6" d="M114.2,68.5c0.1,2.5,0,4.9,0.3,7.4c-1.4,8.4-4.3,9.5-4.3,9.5s0.1-2.2,0.4-3.8c0.1-0.7,1.7-4.8,0.3-9.3
				c1.2-0.8,1-1.2,1.1-2.6c0.1-1.1,1-1.5,1.9-1.5C114,68.3,114.1,68.4,114.2,68.5z"/>
			<path class="st29" d="M103.6,68.5c0.2-0.5,0.5-0.9,0.7-1.4c2.5-1,4.8-2.6,7.6-3c0.6,0.4,0.4,1,0.5,1.5c-0.3,0.8-1.5,5-2.8,6.1
				c-0.6,0.4-0.3-0.6-1.3,0.5c-0.6,0.5-4.7,6.3-6.8,7.3c-1.2-0.4-0.8-1.3-0.6-2.1c0.5-2.6,0.9-5.1,2.4-7.4
				C103.3,69.5,103.5,69,103.6,68.5z"/>
			<path class="st30" d="M103.4,70c-1.5,2.2-1.9,4.8-2.4,7.4c-0.1,0.8-0.6,1.7,0.6,2.1c-0.3,0.2-0.6,0.5-0.9,0.7
				c-1.3-1.2-0.2-2.5-0.2-3.7c0.6-1.1,0.2-2.3,0.3-3.5c0.2-0.6,0.2-1.2,1-1.4C102.5,71.1,102.4,70,103.4,70z"/>
			<path class="st31" d="M112.4,65.6c0-0.5,0.1-1.1-0.5-1.5c3.4,0.1,1.8,2.8,2.3,4.3c-0.1-0.1-0.2-0.3-0.4-0.4
				C113.4,67.3,114.6,65.5,112.4,65.6z"/>
			<path class="st32" d="M107,55.4c0,0.2,0,0.5,0.1,0.7c-0.1,0.5-0.3,1-0.4,1.5c-0.3-0.7-0.7-1.5-1-2.2
				C106.1,55.4,106.6,55.4,107,55.4z"/>
			<path class="st33" d="M107.5,82.5c1.4-0.8,2.4-0.3,2.9-0.1c-0.1,0.3,0.1,3.1-0.2,3C109.3,85,107.8,84.3,107.5,82.5z"/>
			<path class="st34" d="M106.4,45.6c-0.3,0.5-0.6,0.6-0.9,0.6s-0.8-0.4-0.9-0.7c-0.2-0.6,0.3-0.7,0.8-0.7
				C105.8,44.9,106.4,44.9,106.4,45.6z"/>
			<path class="st35" d="M106,37.6c1.1,0.8,2.5,0.6,3.7,1.7c-1.4-0.5-2.7-0.9-4.1-1.4C105.8,38,105.9,37.8,106,37.6z"/>
			<path class="st36" d="M120.4,49.5c-0.6,0.3-1.3,0.6-1.9,0.8C119.1,49.3,119.7,49.6,120.4,49.5z"/>
			<path class="st37" d="M96.4,81.5c-0.1-0.2-0.2-0.5-0.4-0.7C96.2,81,96.3,81.3,96.4,81.5z"/>
			<path class="st38" d="M59.4,66.5c0.3,0.3,1.2,1.7,1.5,1.9l0,0c0.6,1.4-0.8,3.1,0.7,4.4c1.5,1.2,3,2.4,2.7,4.7
				c-0.2,1.3,0.8,2.5,1.8,3.3c-1,0.3-1.6,0.5-2.1,0.8c-0.1,0-0.1-0.1-0.2-0.1c0.1-1.2-2.1-1.4-1.4-2.9c0.6-1,0.6-2,0-3
				c-0.2-0.2-0.5-0.5-0.8-0.6c-1.4-0.7-2.6-0.2-2.9-1.2c-0.2-0.8,0.5-1.5,0.8-2.2c0.1-1,0-0.5,0-1.8c-0.2-0.3-0.3-0.3-0.4-0.6
				c-0.6-0.4-1.9-1.1-1.9-1.6C58.1,67.4,58.6,67,59.4,66.5z"/>
			<path class="st19" d="M94.7,46.6c0.2-0.1,1.2-2,1.3-2.2c0.6,2.2-0.3,3.1,0,5.5c0.6,4.7,2.9,8.8,5.4,12.7c1,1.5,2.1,3,2.4,5.8
				c-0.2,1.1-0.6,2.7-1.8,2.9c-0.4-3.5-2.5-8-3.9-11c-0.9-1.8-1.9-3.6-2.7-5.5C94.9,52.1,94.7,46.8,94.7,46.6z"/>
			<path class="st39" d="M110.4,29.3c-0.1,2-1.5,3.1-2.6,4.4c-1.1,1.2-1.7,2.8-2.5,4.2c-0.4-0.1-1.6,0.4-1-0.7
				C105.9,34.3,107.6,31.4,110.4,29.3z"/>
			<path class="st40" d="M50.2,115c4.9,2.2,3.2,5.6,3.1,5.7c-1.8-0.7-4-2.2-5-3.2c0-0.8-11-4.3-10.9-5.6c0.6-10.1,6.8-2,5.6-17.4
				c-0.1-0.8,0.3-2.9,0.9-3.2c0.4-0.2,3.3,1,5.1,3c1.4,1.6,1.9,3.7,1.8,5.4c-0.2,3.4-10,7.7-8.4,10.8C42.5,110.7,47,114,50.2,115z"
				/>
			<path class="st41" d="M43,94.5c-0.4-2.2-0.6-3.6-0.6-5.7c4,0.2,7.1,2.3,8.7,5.7c0.2,0.5,0.3,1,0.5,1.5c-0.2,1.2-0.5,2.4-0.7,3.6
				c0.2-3.9-2.6-5.9-5.3-7.6C43.3,90.3,43.1,93.8,43,94.5z"/>
			<path class="st42" d="M48.3,117.5c1,1,3.2,2.5,5,3.2c-0.1,0.5-3.5,1.9-4.1,1.7c-0.2-0.1-0.4-0.7-0.4-1
				C48.8,120.2,48.3,118.5,48.3,117.5z"/>
			<path class="st43" d="M56.7,87.3c-1,1.4-2,2.8-3,4.3c0-2.8-4.2-4.3-3.3-7.6c0.4-0.7,1.5-0.7,2.5-0.4C52.7,84,52.2,85,53,86.1
				C54,87.2,55.8,85.8,56.7,87.3z"/>
			<path class="st44" d="M70.7,79.2c-0.2,0-0.4,0-0.6,0.1c0.2-5-2.2-9.6-2.5-14.5C69.3,69.5,70.7,74.1,70.7,79.2z"/>
			<path class="st25" d="M67.2,70c-0.1-0.2-0.2-0.5-0.4-0.7C66.9,69.5,67,69.6,67.2,70z"/>
			<path class="st7" d="M73.4,78.5l-0.3,0.1c-2-0.7-1.7-2.6-2.1-4c-2-6.4-0.4-11.4,0.3-11.4c0.6,2.4,3.8,3.5,3.1,6.6
				c-0.5,2.2-0.3,4.4,2.4,5.2c1.1,0.3,0.6,1.4,0.6,2.2c0,0.9-0.9,0.7-1.4,0.8C75.1,78.2,74,77.3,73.4,78.5z"/>
			<path class="st45" d="M73.4,78.5c0.5-1.3,1.7-0.5,2.5-0.7c0.5-0.1,1.4,0.2,1.4-0.7c0-0.8,0.6-1.9-0.6-2.2c-2.7-0.8-3.1-2.9-2.6-5
				c0.7-3.1-2.4-4.2-3-6.6c0.3-1.2,0.7-0.2,1,0c0.5,1.7,1.4,3.1,3.3,3.3c0.1,0.1,0.3,0.2,0.4,0.4c-2.4,3.4-1.7,5.8,2.3,7.6
				c0.7,0.3,0.7,0.8,0.6,1.3c-0.2,0.9-0.6,1.7-0.7,2.6C76.6,78.5,75,78.5,73.4,78.5z"/>
			<path class="st46" d="M78.1,78.5c0.2-0.9,0.6-1.9,0.5-2.8c-0.1-0.5-0.1-0.5-0.5-1.1c-2.2-1-3.1-1.8-3.4-3.5
				c-0.5-2.4,0.9-4.5,0.9-4.5s1.2-1.3,2.1-1c2,0.8-1.9,6.4,2.2,7.3c2,0.4,1.8,1.4,1.5,2.5c-0.4,1.5,2.2,3.1,2.8,4.4
				C83.6,79.8,78.8,78.7,78.1,78.5z"/>
			<line class="st47" x1="67.3" y1="80.3" x2="67.5" y2="80.3"/>
			<path class="st48" d="M112.4,65.6c2.2-0.2,1,1.6,1.5,2.4c-1,0-1.5,0.3-1.6,1.4c-0.1,1.4-0.3,1.9-1.5,2.7
				c-0.5,0.1-1.3-0.5-1.8-0.4C109,71.8,108.6,68.5,112.4,65.6z"/>
			<path class="st49" d="M122.8,50c1.3,1.6,0.8,2.2-0.7,3.3c-2,1.4-3.6,1.4-5.8,1.4C116,54,119.3,49.8,122.8,50z"/>
			<path class="st50" d="M80.2,58.8l0.6-0.2c0,0-0.1,2.7,0.5,3.5c1.6,2.1,2.7,2.1,3.3,3.7c0.6,1.4-1,2.8-0.6,3.7
				c0.4,1,2.8-0.2,3.9,2.2c0.4,0.8-0.2,2.9,0.3,3.7c0.6,0.9,2.6-0.5,3.9,1.3c0.7,1,0.4,2.4,0.9,3c0.9,1.1,3.9,0,5.4,1.7
				c0.7,0.8,0.6,3,1.3,3.6c0.7,0.6,3.5,0.2,3.5,0.2l0.8,1.5c0,0-3.9,0.4-4.8-0.3s-1.1-3.3-2-4c-1.1-0.8-4.2-0.6-5-1.6
				c-0.6-0.7-0.3-2.9-1-3.5c-0.8-0.7-3.5-0.3-4.1-1.1c-0.6-0.8,0.1-3.2-0.5-4s-3-1.4-3.4-2.3c-0.4-0.8,0.3-2.8,0-3.7
				c-0.4-1-2.1-2.6-2.5-3.6C80,61.4,80.2,58.8,80.2,58.8z"/>
			<path class="st46" d="M72.3,62l1-0.2c0,0,1.1,2.3,1.8,3c0.8,0.8,2.7,0.4,2.8,1.1c0.1,0.6-2.1,1-2.1,1s-1.5-0.3-2.4-1.2
				c-0.5-0.5-1.1-1.7-1.2-2.3C72.1,63,72.3,62,72.3,62z"/>
			<path class="st10" d="M69.1,78.5c0.2-3-0.7-5.9-1.8-8.6c-0.1-0.2-0.2-0.5-0.4-0.7c0-0.1,0-0.2,0-0.3c-0.2-0.1-0.5-0.2-0.7-0.4
				c-0.1-0.5-0.3-1.1-0.4-1.5c-0.1-0.3-0.5-0.9-0.8-1.1c-0.2-0.2-0.5-0.6-1.1-0.6c-0.3,0-1,0.2-1.3,0.2c-0.1,0-0.5,0-0.5,0l-2.6,1.1
				c0,0,1,4.2,1.6,5.5c0.1,0.2,0.4,0.6,0.5,0.8c0.2,0.3,0.7,0.6,1.1,0.9c1,1,1.8,2,1.5,3.7c-0.2,1.3-0.6,2.5,1.1,3.1
				c0.3,0.1,0.5,0.1,0.8,0.2c0.4-0.1,1.4-0.6,1.4-0.6c0.7-0.3,1.9-0.7,2.7-1C69.9,79,69.1,78.5,69.1,78.5z"/>
			<path class="st34" d="M106.6,44.4c0,0-0.8-0.6-1.1-0.6c-0.5,0-1.9,0.8-1.9,0.8s1.2-0.4,1.6-0.4C105.5,44,106.6,44.4,106.6,44.4z"
				/>
		</g>
		<g>
			<polygon class="st51" points="78.9,103 79.2,102.3 81.3,103 80.8,104 			"/>
			<polygon class="st52" points="79.1,102.5 79.2,102.3 81.3,102.8 81,103.5 			"/>
			<polygon class="st53" points="79.1,102.5 79.2,101.8 81.6,102 81.4,103.2 			"/>
			<polygon class="st54" points="79.2,102 79.2,101.7 81.6,101.8 81.5,102.5 			"/>
			<polygon class="st55" points="79.3,102 79.2,101.3 81.6,100.7 81.7,102 			"/>
			<polygon class="st56" points="79.2,101.5 79.2,101.2 81.6,100.7 81.7,101.3 			"/>
			<polygon class="st57" points="79.3,101.5 79,100.8 81.3,99.5 81.8,100.8 			"/>
			<polygon class="st58" points="79.1,101 79,100.8 81.3,99.3 81.6,100.2 			"/>
			<polygon class="st59" points="79.2,100.8 78.7,100.3 80.8,98.3 81.6,99.5 			"/>
			<polygon class="st60" points="78.9,100.5 78.7,100.3 80.8,98.2 81.2,98.8 			"/>
			<polygon class="st61" points="78.9,100.2 78.3,99.7 79.8,97.2 81,98.3 			"/>
			<polygon class="st62" points="78.5,99.8 78.3,99.7 79.7,97 80.4,97.7 			"/>
			<polygon class="st63" points="78.5,99.5 77.8,99 78.4,96.2 79.9,97.2 			"/>
			<polygon class="st64" points="77.9,99.2 77.7,99 78.3,96.2 79.2,96.7 			"/>
			<polygon class="st65" points="77.8,99 77,99 77.2,95.8 78.8,96 			"/>
			<polygon class="st66" points="77.2,99 76.9,99 77.1,95.8 77.9,96 			"/>
			<polygon class="st67" points="77.1,98.8 76.2,98.8 75.4,95.7 77.4,95.5 			"/>
			<polygon class="st68" points="76.4,98.8 76,98.8 75.2,95.7 76.4,95.5 			"/>
			<polygon class="st69" points="76.1,98.5 75.3,98.8 73.8,96 75.4,95.5 			"/>
			<polygon class="st70" points="75.5,98.8 75.1,99 73.6,96 74.4,95.8 			"/>
			<polygon class="st71" points="75.2,98.7 74.5,99.2 72.3,96.8 73.7,95.8 			"/>
			<polygon class="st72" points="74.7,99 74.5,99.2 72,97 72.8,96.5 			"/>
			<polygon class="st73" points="74.4,99 73.7,99.7 70.9,98 72.1,96.7 			"/>
			<polygon class="st74" points="74,99.3 73.7,99.7 70.8,98 71.5,97.3 			"/>
			<polygon class="st75" points="73.5,99.3 73,100.3 70.1,99.2 71,97.5 			"/>
			<polygon class="st73" points="73.1,100 73,100.5 70.1,99.3 70.5,98.5 			"/>
			<polygon class="st76" points="72.8,100.2 72.7,101 69.4,100.8 69.7,99 			"/>
			<polygon class="st77" points="72.7,100.8 72.7,101.2 69.3,100.8 69.5,100 			"/>
			<polygon class="st78" points="72.5,101 72.5,102 68.9,102.5 68.8,100.5 			"/>
			<polygon class="st79" points="72.5,101.8 72.5,102 68.9,102.7 68.9,101.8 			"/>
			<polygon class="st80" points="72.3,102 72.7,103 69.1,104.5 68.4,102.5 			"/>
			<polygon class="st81" points="72.6,102.7 72.7,103 69.2,104.7 68.8,103.5 			"/>
			<polygon class="st82" points="72.4,103 73,104 69.9,106.7 68.6,104.8 			"/>
			<polygon class="st83" points="72.9,103.7 73.2,104 70,106.8 69.3,105.8 			"/>
			<polygon class="st84" points="72.8,104 73.8,104.8 71,108.7 69.2,107 			"/>
			<polygon class="st85" points="73.5,104.7 73.8,105 71.1,108.7 70.2,107.8 			"/>
			<polygon class="st15" points="73.4,105.3 74.5,105.8 72.9,110 70.8,109 			"/>
			<polygon class="st86" points="74.3,105.7 74.6,105.8 73,110 72.1,109.7 			"/>
			<polygon class="st38" points="74.3,106 75.6,106.3 75.2,111.2 72.7,110.5 			"/>
			<polygon class="st87" points="75.2,106.3 75.6,106.3 75.2,111.2 73.9,110.8 			"/>
			<polygon class="st88" points="75.5,106.5 77,106.5 77.8,111.8 74.9,111.8 			"/>
			<polygon class="st89" points="76.6,106.5 77.1,106.5 78.2,111.8 76.7,111.8 			"/>
			<polygon class="st90" points="76.9,106.8 78.4,106.3 80.7,111.5 77.8,112.5 			"/>
			<polygon class="st91" points="77.8,106.5 78.4,106.3 81,111.5 79.3,112 			"/>
			<polygon class="st92" points="78.4,106.8 79.8,105.8 83.7,110.5 81,112.3 			"/>
			<polygon class="st93" points="79.3,106.2 79.8,105.8 83.7,110.5 82.3,111.5 			"/>
			<polygon class="st94" points="80,106.3 81.2,105 86.7,108.8 84.2,111.5 			"/>
			<polygon class="st95" points="80.9,105.5 81.2,105 86.7,108.8 85.3,110.3 			"/>
			<polygon class="st96" points="81.7,105.3 82.6,104 88.1,107.3 86.2,110 			"/>
			<polygon class="st97" points="82.3,104.5 82.6,104 88.1,107.3 87.2,108.5 			"/>
			<polygon class="st98" points="82.7,104.8 83.2,103 89.6,104.8 88.4,108 			"/>
			<polygon class="st99" points="83,103.8 83.2,103 89.7,104.3 89.2,106 			"/>
			<polygon class="st100" points="83.4,103.5 83.6,101.7 90.4,101.5 89.8,105.2 			"/>
			<polygon class="st101" points="83.5,102.3 83.6,101.7 90.4,101.5 90.1,103 			"/>
			<polygon class="st102" points="83.6,102 83.3,100 90.3,98 90.8,102 			"/>
			<polygon class="st103" points="83.4,100.8 83.3,100 90.3,98 90.5,99.5 			"/>
			<polygon class="st51" points="83.8,100.5 82.9,98.5 89.4,94.5 91,98.3 			"/>
			<polygon class="st104" points="83.2,99.2 82.8,98.5 89.5,94.5 90.1,96 			"/>
			<polygon class="st53" points="83.5,98.7 82.1,96.8 87.5,91 90,94.5 			"/>
			<polygon class="st105" points="82.6,97.3 81.7,96.3 87.3,90.5 88.5,92 			"/>
			<polygon class="st55" points="82.8,96.5 81,95 84.4,87.8 88.1,90.8 			"/>
			<polygon class="st106" points="84.4,87.8 85.8,88.8 81.4,95.3 81,95 			"/>
			<polygon class="st57" points="81.2,94.8 78.9,94 81,85.7 85.3,87.3 			"/>
			<polygon class="st107" points="79.6,94.3 78.5,93.8 80.6,85.5 82.6,86.3 			"/>
			<polygon class="st59" points="79.4,93.8 76.9,93.5 76.6,84.3 81.5,85.3 			"/>
			<polygon class="st108" points="77.6,93.5 76.4,93.5 76.1,84.3 78.1,84.7 			"/>
			<polygon class="st61" points="77,92.7 74.6,93 72.1,84.7 76.8,84 			"/>
			<polygon class="st109" points="75.4,92.8 74.1,93 71.6,84.7 73.7,84.3 			"/>
			<polygon class="st63" points="74.5,92.3 72.3,93.5 67.7,86 72,84 			"/>
			<polygon class="st110" points="73.2,93 71.4,93.8 66.8,86.3 68.9,85.5 			"/>
			<polygon class="st65" points="72.1,92.7 70,94.3 63.3,88 67.4,85.3 			"/>
			<polygon class="st111" points="70.7,93.5 69.5,94.7 62.9,88.3 64.9,86.8 			"/>
			<polygon class="st67" points="69.6,93.5 67.7,95.5 60.6,91 63.4,87.5 			"/>
			<polygon class="st112" points="68.5,94.5 67.6,95.8 60.3,91.3 61.6,89.7 			"/>
			<polygon class="st69" points="67.3,95 66.4,97.3 57.6,94.8 59.6,90.3 			"/>
			<polygon class="st113" points="66.8,96.2 66.4,97.8 57.6,95.3 58.6,92.5 			"/>
			<polygon class="st71" points="65.8,97 65.4,99.8 55.4,99.2 56.3,94 			"/>
			<polygon class="st114" points="65.6,98.8 65.4,100.2 55.4,99.7 55.7,97.5 			"/>
			<polygon class="st115" points="64.8,99.5 65.3,102.3 54.8,104.7 54.2,99 			"/>
			<polygon class="st116" points="65.1,101.3 65.3,102.8 54.8,105 54.6,102.5 			"/>
			<polygon class="st75" points="64.4,102.3 65.7,105.2 55.6,110.7 53.4,105 			"/>
			<polygon class="st117" points="65.2,104.5 65.7,105.7 55.6,111.2 54.6,108.2 			"/>
			<polygon class="st76" points="64.9,105.3 67,108.2 57.5,116.7 53.7,111 			"/>
			<polygon class="st118" points="66.4,107.3 67,108.2 57.7,117 56.1,114.7 			"/>
			<polygon class="st78" points="65.8,109 68.5,111 61.8,121.3 56.8,117.2 			"/>
			<polygon class="st119" points="67.2,110 68.8,111.2 62.1,121.5 60.2,120 			"/>
			<polygon class="st80" points="67.8,111.5 71.1,113 67.4,125.5 60.9,122.7 			"/>
			<polygon class="st120" points="70,112.5 71.4,113 67.6,125.7 65.2,124.5 			"/>
			<polygon class="st82" points="70.6,113.7 74.6,114.3 73.7,128.8 66.1,127.5 			"/>
			<polygon class="st121" points="73.8,114 75.1,114.3 74.2,128.8 71.8,128.5 			"/>
			<polygon class="st84" points="74.2,115.2 78.4,114.5 81.6,129.8 73.5,130.5 			"/>
			<polygon class="st122" points="77.5,114.8 78.9,114.5 82.1,129.8 79.7,129.8 			"/>
			<polygon class="st15" points="78.3,115.8 82.6,114 90.4,128.7 82.1,131.8 			"/>
			<polygon class="st123" points="82.4,114 81.3,114.5 87.8,129.5 90.1,128.5 			"/>
			<polygon class="st38" points="82.8,115.2 86.9,112.2 99.1,126 90.9,131.5 			"/>
		</g>
	</g>
</g>
</svg>
