<?xml version="1.0" encoding="utf-8"?>
<!-- Generator: Adobe Illustrator 19.0.1, SVG Export Plug-In . SVG Version: 6.00 Build 0)  -->
<svg version="1.1" id="Слой_1" xmlns="http://www.w3.org/2000/svg" xmlns:xlink="http://www.w3.org/1999/xlink" x="0px" y="0px"
	 viewBox="0 0 128.7 149.5" style="enable-background:new 0 0 128.7 149.5;" xml:space="preserve">
<style type="text/css">
	.st0{fill:#C24F56;}
	.st1{fill:#00ABD1;}
	.st2{fill:#26A8D2;}
	.st3{fill:#E73237;}
	.st4{fill:#F4981F;}
	.st5{fill:#EBE200;}
	.st6{fill:#73B73D;}
	.st7{fill:#00A8D9;}
	.st8{fill:#1F4697;}
	.st9{fill:#6C388D;}
	.st10{fill:#B7CE5D;}
	.st11{fill:#0074BC;}
	.st12{fill:#E9E100;}
	.st13{fill:#6C398E;}
	.st14{fill:#AC569C;}
	.st15{fill:#233983;}
	.st16{fill:#7EBB47;}
	.st17{fill:#4F2774;}
	.st18{fill:#A24895;}
	.st19{fill:#007AB9;}
	.st20{fill:#E59C38;}
	.st21{fill:#EB5D44;}
	.st22{fill:#744172;}
	.st23{fill:#00A0D0;}
	.st24{fill:#ECEEB3;}
	.st25{fill:#BBCC70;}
	.st26{fill:#D8E6B4;}
	.st27{fill:#F1F4D5;}
	.st28{fill:#E7EDB7;}
	.st29{fill:#FDE9EB;}
	.st30{fill:#E73337;}
	.st31{fill:#CE2527;}
	.st32{fill:#A52C59;}
	.st33{fill:#9D333E;}
	.st34{fill:#9CC266;}
	.st35{fill:#DA5965;}
	.st36{fill:#FBDFE1;}
	.st37{fill:#39441A;}
	.st38{fill:#CED08F;}
	.st39{fill:#C2A6A5;}
	.st40{fill:#0097A3;}
	.st41{fill:#0088B4;}
	.st42{fill:#F6C100;}
	.st43{fill:#EC642C;}
	.st44{fill:#EA5836;}
	.st45{fill:#F3932A;}
	.st46{fill:#EE765F;}
	.st47{fill:#A64895;}
	.st48{fill:#0074A8;}
	.st49{fill:#F28F38;}
	.st50{fill:#AE1917;}
	.st51{fill:#ECF2D4;}
	.st52{fill:#AA191A;}
	.st53{fill:#A9589E;}
	.st54{fill:#009E9C;}
	.st55{fill:#B74291;}
	.st56{fill:#A5338A;}
	.st57{fill:#C04190;}
	.st58{fill:#A62585;}
	.st59{fill:#A54B97;}
	.st60{fill:#851F81;}
	.st61{fill:#884A97;}
	.st62{fill:#7C3D90;}
	.st63{fill:#874795;}
	.st64{fill:#7E398D;}
	.st65{fill:#654193;}
	.st66{fill:#603A8E;}
	.st67{fill:#6C4595;}
	.st68{fill:#693E90;}
	.st69{fill:#614394;}
	.st70{fill:#5F3B8F;}
	.st71{fill:#554193;}
	.st72{fill:#533A8F;}
	.st73{fill:#0088CE;}
	.st74{fill:#0081AE;}
	.st75{fill:#00A4D3;}
	.st76{fill:#00829D;}
	.st77{fill:#009D95;}
	.st78{fill:#007E77;}
	.st79{fill:#00A2A7;}
	.st80{fill:#00A28B;}
	.st81{fill:#009C7B;}
	.st82{fill:#009D52;}
	.st83{fill:#009953;}
	.st84{fill:#009F3C;}
	.st85{fill:#00983F;}
	.st86{fill:#8DBF22;}
	.st87{fill:#84A328;}
	.st88{fill:#CECE00;}
	.st89{fill:#B4B012;}
	.st90{fill:#D0C500;}
	.st91{fill:#E4B100;}
	.st92{fill:#F7A400;}
	.st93{fill:#E18C03;}
	.st94{fill:#F28B0E;}
	.st95{fill:#E87606;}
	.st96{fill:#EF792A;}
	.st97{fill:#EB6209;}
	.st98{fill:#EA5930;}
	.st99{fill:#E73E17;}
	.st100{fill:#E6301F;}
	.st101{fill:#D02517;}
	.st102{fill:#E61F58;}
	.st103{fill:#CB0F50;}
	.st104{fill:#D3206C;}
	.st105{fill:#B61A61;}
	.st106{fill:#DB2A88;}
	.st107{fill:#C52084;}
	.st108{fill:#A33089;}
	.st109{fill:#B0388C;}
	.st110{fill:#943B8E;}
	.st111{fill:#7C4293;}
	.st112{fill:#814091;}
	.st113{fill:#5F358B;}
	.st114{fill:#683F91;}
	.st115{fill:#5C3A8E;}
	.st116{fill:#50398E;}
	.st117{fill:#0072A0;}
	.st118{fill:#0090B1;}
	.st119{fill:#00A2A5;}
	.st120{fill:#008E87;}
	.st121{fill:#009891;}
	.st122{fill:#009D7C;}
	.st123{fill:#009C57;}
	.st124{fill:#009C3D;}
	.st125{fill:#92B722;}
	.st126{fill:#C9C300;}
	.st127{fill:#E3D000;}
</style>
<g>
	<g>
		<path class="st0" d="M93.2,114.7c0.2,0.4,2.9,4.4,3.1,4.7c-1.7,2.7-6.9-0.5-7.1-2.1C89.2,116.9,92.3,115.6,93.2,114.7z"/>
		<path class="st1" d="M0.9,82.5c0-0.1,0.1-0.1,0.1-0.2C1,82.4,0.9,82.5,0.9,82.5L0.9,82.5z"/>
		<path class="st2" d="M9.3,63.4c0,0-1,0.2,0.7-0.7c3.8-2.2,8.1-0.3,8.2,3.7c0.2,4.5,6.2,5.6,6.8,5.6c-0.2,0.5-0.4,1-0.6,1.5
			c0.8,0.1-3.6,1-7.8-8.8C15.1,61.3,10.1,62.5,9.3,63.4z"/>
		<polygon class="st3" points="8.9,63 2.7,60.2 2.2,60.7 8.4,63.3 		"/>
		<polygon class="st4" points="8.9,63 1.7,61.8 1.7,62.6 8.9,63.4 		"/>
		<polygon class="st5" points="8.9,63 1.7,63.8 1.7,64.6 8.9,63.4 		"/>
		<polygon class="st6" points="8.9,63 2.5,65.5 2.9,66 8.9,63.4 		"/>
		<polygon class="st7" points="8.9,63 3.5,66.7 3.9,67.2 8.9,63.4 		"/>
		<polygon class="st8" points="8.9,63 4.9,67.9 5.5,68 9.3,63.4 		"/>
		<polygon class="st9" points="8.9,63.3 6.6,68 7.7,68 9.3,63.4 		"/>
		<path class="st3" d="M69.6,50.8c0.2,1,0.1,1.6,0.2,2.6c0.3,1.6-0.4,2.4,1.2,3.7c0.8,0.7,1.8,1.2,2.6,1.8c0.7,1.2,0.8,2.2,0.1,3.5
			c-0.7,1.3-0.4,2.7,1.1,4c0.4,0.6,2.5,0.6,2.8,1.2c0.5,1.3,4.4,5.1,6.3,7.2c1.4,1.6,2.2,3.1,3.8,4.6c2.2,2,4.1,2.5,5,2.9l1.2,3.9
			c0,0,7.1,1.6,7.3,1.9c0.3,1,2.3,3.9,2.3,3.9c3.5,7.4,4.5,5.9,0.7,12.8c-1.1,2-5.6,8.1-6,10.5c-1.7,6.1-2.7,3.6-2.7,3.6
			c-1.8-2-2.7-2.4-2.8-3.5c0.2-0.6,6.6-8.9,6.9-15c0.2-3.4-6.1-6.8-8.1-8.3c-2.8-1.6-10.1-7.7-10.5-8.1c-0.2-0.3-11.4-7.6-9.9-11.3
			c0.5-1.4-0.9-2.3-1.7-2.5c-4.6-1.2-3.3-4.5-2.8-7.5c0.3-1.6,0.3-2.8-1.8-2.8c-2,0.2-2.8-1.2-3.5-2.7c-0.2-0.4-1.1-2.3-1.1-2.3
			S68.2,51.6,69.6,50.8z M73.1,76.4 M75.3,76.3"/>
		<path class="st10" d="M124.6,38.4c-0.4,0-0.8,0.1-1.3,0.1c-1,0.1-1.8-0.3-2.6,1.1c-1.6,1.3-3.3,2.7-2.9,5.1c-0.1,0-0.2,0-0.3,0
			c-1.5-0.2-2.9-1.1-4.5-1.2c-2.4-0.6-5-0.5-7.4-1.1c-4.2-2.8-9.6-4.4-10.7-10.5c-0.4-2.2,1.4-4,0.7-6.2c0-0.2,0-0.5,0-0.7
			c0.4-0.1,0.7-0.2,1.1-0.2c0.2-0.4,0.4-0.8,0.7-1.2c1.2-0.8,0.9-0.8,1.8-1.6c0.5,2.7,2.1,1.7,3.9,1c0.2,0,0.3,0,0.5,0
			c1.8,0.6,3.6,1.2,5.5,1.9c1.9,1.1,4.9,4.7,4.4,5.7c-0.3,0.6-1.3,1.4-0.7,2.2c0.7,0.9,1.8,0,2.5-0.3c0.4-0.2,0.3-0.3,0.9,0.1
			C118.6,34.2,121.7,36.9,124.6,38.4z M104.6,33.3c-0.2-1-0.7-1.1-1.3-1.1c-0.6,0-1.3,0.2-1,0.9c0.2,0.4,0.8,0.9,1.2,0.9
			C103.9,34.1,104.3,33.5,104.6,33.3z"/>
		<path class="st11" d="M97.2,79.3c1,2.2,2.1,4.5,3.1,6.7c-0.6,0-3.8,0.5-4.8-0.4c-1.4-1.3,0-3.4-2.2-5.1c-1.3-1-4.8-0.6-6-1.4
			c-2.3-1.5-0.3-3.1-2.1-4.9c-0.9-1-3.9-0.1-4.8-1.2c-1.7-2.1,0.5-3.3-0.7-5.4c-0.9-1.5-4.2-0.8-5-2.3c-1-1.9,1.4-2.7,0.7-5
			c-0.6-1.9-3.6-3.2-4.5-5.1c-1.2-2.4-0.5-4-0.5-4.6c2.6-0.6,4.4-2,6.5-3.6c0.8,9.2,5.9,12.9,12.3,19c2.7,2.6,7.8,3.2,7.7,8.4
			C97,76,95.4,77.8,97.2,79.3z"/>
		<path class="st12" d="M32.7,65.8c1.8-1,5.9-3,6.2-3c0.2,0,0.4,0.1,0.6,0.1c0.3,1,0.9,1.7,2,1.9c0.1,0,0.4,0.6,0.5,0.9
			c0,0.8,0.2,1.5,0,2.4c-0.3,1-0.7,2-1,3c1.3,0.5,2.6,1,3.9,1.5c0.3,0.3,0.9,0.5,1.1,0.9c0.4,0.9,0.8,2.5,0.4,3.4
			c-0.5,1.2,2.1,2.8,1.4,4.4c0.1,0,0.1,0.1,0.2,0.1c-3.1,2.3-7.1,4.7-9.8,7.7c-0.1-0.9-4.9-0.7-5.3-1.6c-0.6-1.3-0.1-3.6,0.8-4.6
			c-2.8-1.2-6.6-0.1-8.3-3.6c-0.6-1.9,0-6.4,0.7-8.3c1.6-1.3,1.6-1.3,3.7-2.9c0.5-0.4,1.1-0.8,1.6-1.3
			C31.7,66.4,32.2,66.1,32.7,65.8z M42.3,80.6"/>
		<path class="st13" d="M89,34.6c0,0,0.4,7.1,1.4,10.8c1,2.5,2,5.1,3.1,7.5c1.9,4.1,4.7,7.7,5.3,12.4c0,0.8,0.1,1.8,0.1,2.6
			c-1.1,0.2-1.4,0.9-1.6,1.7c-0.7-0.5-1.4-1-2.1-1.5c-7.7-5.9-14.3-12.5-16.6-22.4C79.2,44.9,86,40.8,89,34.6z"/>
		<path class="st13" d="M97.5,23.6c-0.2,0.4-0.4,0.8-0.7,1.2c-2.6-4.7-6.2-8.3-11.8-9.1c-3-3.8-3.4-8.7-2.9-13.3
			C85.4,10.7,97.3,7.8,97.5,23.6z"/>
		<path class="st4" d="M103.2,23.1c-1.8,0.6-3.4,1.7-3.9-1c-0.8-14,7.1-9.1,11.5-21.2c3.5,4.5,0.5,10.2,0.3,10.5
			c-0.1,0-0.2-0.1-0.2-0.1c-0.2-0.2-0.6-0.3-0.8,0.1l0,0c-3.7,2.8-6,6.7-8.2,10.6c-0.9,1.5,0.7,0.8,1.3,0.9L103.2,23.1z"/>
		<path class="st14" d="M105.1,49.2c-1,4.2-1.9,8.4-2.9,12.6c-0.3,0.6-0.6,1.2-1,1.9c-0.2-0.5-0.3-0.9-0.5-1.4
			c-0.1-2.4-1.5-4.4-2.8-6.3c-3.4-5.2-6.4-10.7-7.2-17c-0.4-3.1,0-7.3,0-7.3c0.5-0.3,2.1-4.1,2.6-4.4c0.3,1.7,0,4.2,0.3,5.9
			c0.8,3.9,3.2,5.9,5.6,9.3c1.5,1.3,3,2.6,4.4,3.9C104.2,47.3,104.6,48.3,105.1,49.2z"/>
		<path class="st9" d="M18.9,91.1c-0.5-3.3,0.1-6.5,0.8-9.8c0.2-0.5,0.4-1,0.6-1.5c0.4-1,0.8-1.9,1.2-2.9c0.9,4.5,3.5,5.7,8.2,7.7
			c0.2,0.1,0.3,0.3,0.5,0.5c-1.1,4.2,3.8,6,3.9,9.7c-0.7,1.3-2.4,5.2-2.9,5.9C28.5,96.4,24.3,91.4,18.9,91.1z"/>
		<path class="st15" d="M78.5,45.7c2.3,9.8,8.9,16.5,16.6,22.4c0.7,0.5,1.4,1,2.1,1.5c-0.1,1.6,0.4,3.2-0.4,4.7
			c0.1-5.2-5-5.8-7.7-8.4c-6.4-6.1-12.3-9.8-12.3-19C77.9,46.3,77.5,46.6,78.5,45.7z"/>
		<path class="st16" d="M95.7,25.1c1.2,2.2-1.1,4.7-0.7,6.9c1.1,6.1,6.5,7.7,10.7,10.5c-0.1,1.3-0.2,2.5-0.3,3.8c-0.6,0-1.2,0-1.8,0
			c-1.5-1.3-3-2.6-4.4-3.9c-4.6-4.4-6.8-9-5.9-15.2L95.7,25.1z"/>
		<path class="st17" d="M85,15.7c5.7,0.9,9.2,4.4,11.8,9.1c-0.4,0.1-0.7,0.2-1.1,0.2C91.1,23.1,87.4,20.1,85,15.7z"/>
		<path class="st18" d="M29.7,84.6c-4.9,1.2-7.3-3.2-8.2-7.7c0.5-1,3.3-5.1,4.4-6c1.5,1.5-1.4,5.8-0.7,8.3c1.8,3.5,8.1,0.6,8.3,3.6
			c0,0.4-0.4,0.9-0.6,1.3C31.9,84.3,30.6,84.4,29.7,84.6z"/>
		<path class="st19" d="M49.7,58c0.8-0.3,1.6-0.5,2.4-0.8c0.2,0.5,0.4,1.1,0.5,1.6c0.5,6.6,3.7,12.7,3.4,19.4
			c-0.2,0-0.3,0.1-0.5,0.1c-0.3-0.4-0.6-0.7-0.9-1.1c0.3-4.1-1-7.9-2.5-11.6c-0.2-0.3-0.3-0.7-0.5-1c0-0.2,0-0.3,0-0.5
			C51,62.2,50.4,60.1,49.7,58z"/>
		<path class="st20" d="M52.7,58.9c-0.2-0.5-0.4-1.1-0.5-1.6c2.3-0.7,4.5-1.4,6.8-2.1c0,0.6,0,1.2,0,1.8c-0.5-0.3-0.9-1.6-1.4,0
			c-1,0-1.5,11.5-0.3,15.1c0.6,1.9,0.2,4.5,2.9,5.4c-1.1,0.3-2.2,0.5-3.2,0.8C56.9,71.5,55,65.1,52.7,58.9z"/>
		<path class="st21" d="M103.6,23c-0.2,0-0.3,0-0.5,0c0,0,0-0.2,0-0.2c1.1-1.9,2-4,3.4-5.7c1.6-1.8,3.4-3.3,3.5-5.9l0,0
			c0.1-0.2,0.4-0.3,0.8-0.1c0.1,0,0.2,0.1,0.2,0.1c-0.7,3.4-1.2,5.9-5.1,9.6l0,0c-0.6,0.5-1.2,1.1-1.9,1.6
			C104,22.7,103.8,22.9,103.6,23z"/>
		<path class="st22" d="M126.7,39.1c-4.2,0-6.5,2.8-8.7,5.7c-0.4-2.5,1.2-3.8,2.9-5.1c0.9-0.4,1.7-0.7,2.6-1.1
			c0.4,0,0.8-0.1,1.3-0.1C125.3,38.6,126,38.8,126.7,39.1z"/>
		<path class="st23" d="M45.9,60c-0.2,0-0.4-0.1-0.6-0.1c1.5-0.6,3-1.2,4.5-1.8c0.7,2.1,1.3,4.2,2,6.3c-0.3-0.2-0.6-0.3-1-0.5
			C49.6,61.8,49.6,58.6,45.9,60z"/>
		<path class="st24" d="M105.5,46.3c0.1-1.3,0.2-2.5,0.3-3.8c2.4,0.6,5,0.5,7.4,1.1c-0.5,0-4.3,1.2-6.6,0.8c-0.3,1-0.7,1.9-1,2.9
			C105.6,46.9,105.5,46.6,105.5,46.3z"/>
		<path class="st25" d="M115.9,32.4c-0.9,0.5-1.1,0.6-1.5,0.8c-0.7,0.3-1.3,0.9-2,0c-0.6-0.8,0.4-1.2,0.4-1.8
			c0.1-0.6,0.3-0.6,0.5-1.6C114,31.1,114,31.2,115.9,32.4z"/>
		<path class="st24" d="M110.2,44.2c0.5,0,2.4-0.6,2.9-0.6c1.5,0.2,2.9,1.1,4.5,1.2c0.9-0.1,0.1,0.3,0.2,0.5
			C115.7,45.2,113,44.9,110.2,44.2z"/>
		<path class="st26" d="M32.6,65.8c-0.5,0.3-1,0.6-1.5,1"/>
		<path class="st30" d="M115.1,63.8c0.1,3.3-0.1,6.6,0.4,9.9c-1.9,11.3-5.8,12.7-5.8,12.7s0.1-3,0.5-5.1c0.2-0.9,2.3-6.4,0.4-12.4
			c1.6-1.1,1.4-1.6,1.5-3.5c0.1-1.5,1.3-2,2.6-2.1C114.8,63.5,115,63.7,115.1,63.8z"/>
		<path class="st31" d="M100.9,63.9c0.3-0.6,0.6-1.2,1-1.9c3.4-1.4,6.4-3.5,10.1-4c0.8,0.5,0.6,1.3,0.6,2c-0.4,1-2,6.8-3.8,8.1
			c-0.8,0.6-0.4-0.8-1.7,0.7c-0.8,0.6-6.2,8.4-9.1,9.7c-1.6-0.5-1-1.8-0.8-2.8c0.6-3.4,1.2-6.9,3.2-9.9
			C100.6,65.2,100.8,64.5,100.9,63.9z"/>
		<path class="st32" d="M100.6,65.8c-2,3-2.6,6.5-3.2,9.9c-0.2,1.1-0.8,2.3,0.8,2.8c-0.4,0.3-0.8,0.6-1.1,0.9
			c-1.7-1.6-0.2-3.3-0.3-5c0.8-1.5,0.3-3.1,0.4-4.7c0.3-0.8,0.3-1.6,1.4-1.9C99.4,67.4,99.4,65.8,100.6,65.8z"/>
		<path class="st33" d="M112.7,60.1c0-0.7,0.2-1.5-0.6-2c4.5,0.1,2.4,3.7,3.1,5.8c-0.2-0.2-0.3-0.4-0.5-0.5
			C114.1,62.2,115.7,59.7,112.7,60.1z"/>
		<path class="st34" d="M105.5,46.3c0,0.3,0.1,0.7,0.1,1c-0.2,0.7-0.4,1.3-0.5,2c-0.5-1-0.9-2-1.4-2.9
			C104.3,46.3,104.9,46.3,105.5,46.3z"/>
		<path class="st35" d="M106.2,82.5c1.9-1,3.2-0.5,3.8-0.2c-0.1,0.3,0.2,4.2-0.3,4C108.5,86.1,106.6,85.1,106.2,82.5z"/>
		<path class="st37" d="M104.6,33.3c-0.4,0.7-0.8,0.8-1.1,0.8c-0.4,0-1-0.5-1.2-0.9c-0.3-0.8,0.4-0.9,1-0.9
			C103.9,32.2,104.6,32.2,104.6,33.3z"/>
		<path class="st38" d="M104.2,22.6c1.5,1.1,3.4,0.8,4.9,2.3c-1.8-0.6-3.6-1.2-5.5-1.9C103.8,22.9,104,22.8,104.2,22.6z"/>
		<path class="st39" d="M123.4,38.5c-0.9,0.4-1.7,0.7-2.6,1.1C121.7,38,122.4,38.7,123.4,38.5z"/>
		<path class="st40" d="M91.3,81.3c-0.2-0.3-0.3-0.6-0.5-1C91,80.7,91.2,81,91.3,81.3z"/>
		<path class="st42" d="M41.8,61.3c0.5,0.3,1.6,2.2,2,2.6c0,0,0,0,0,0c0.8,1.9-1.1,4.2,1,5.9c2,1.6,4.1,3.3,3.6,6.2
			c-0.3,1.7,1.1,3.3,2.5,4.4c-1.3,0.4-2.1,0.7-2.8,1c-0.1,0-0.2-0.1-0.2-0.1c0.2-1.7-2.8-1.8-1.9-3.9c0.8-1.3,0.8-2.6,0-4
			c-0.3-0.3-0.7-0.6-1.1-0.8c-1.9-0.9-3.5-0.3-3.8-1.6c-0.3-1,0.7-2,1-3c0.2-1.4,0-0.7,0-2.4c-0.3-0.4-0.4-0.5-0.6-0.8
			c-0.8-0.5-2.5-1.5-2.5-2.2C39.9,62.3,40.6,61.8,41.8,61.3z"/>
		<path class="st17" d="M89,34.6c0.2-0.2,1.6-2.7,1.7-2.9c0.8,3-0.4,4.2,0,7.3c0.8,6.3,3.8,11.7,7.2,17c1.3,2,2.8,4,3.3,7.8
			c-0.2,1.5-0.8,3.6-2.5,3.9c-0.5-4.6-3.3-10.7-5.2-14.7c-1.2-2.5-2.6-4.9-3.6-7.4C89.3,41.9,88.9,34.7,89,34.6z"/>
		<path class="st43" d="M110,11.3c-0.1,2.6-2,4.1-3.5,5.9c-1.4,1.6-2.3,3.8-3.4,5.7c-0.6-0.1-2.2,0.6-1.3-0.9
			C104,18.1,106.3,14.2,110,11.3z"/>
		<path class="st44" d="M29.5,126.1c6.5,2.9,4.2,7.5,4.1,7.6c-2.5-0.9-5.3-3-6.7-4.3c0-1.1-14.7-5.8-14.6-7.5
			c0.8-13.5,9.1-2.6,7.5-23.3c-0.2-1,0.4-3.8,1.2-4.3c0.5-0.3,4.4,1.3,6.8,4c1.9,2.1,2.5,4.9,2.4,7.2c-0.3,4.5-13.4,10.3-11.3,14.5
			C19.1,120.4,25.1,124.9,29.5,126.1z"/>
		<path class="st45" d="M19.8,98.7c-0.5-2.9-0.8-4.9-0.9-7.6c5.4,0.3,9.5,3.1,11.6,7.7c0.3,0.6,0.4,1.3,0.6,1.9
			c-0.3,1.6-0.7,3.2-1,4.8c0.2-5.3-3.4-7.9-7-10.2C20.1,93,19.8,97.7,19.8,98.7z"/>
		<path class="st46" d="M26.9,129.4c1.4,1.3,4.2,3.4,6.7,4.3c-0.1,0.7-4.7,2.5-5.4,2.3c-0.3-0.1-0.5-0.9-0.6-1.4
			C27.5,133.1,26.9,130.9,26.9,129.4z"/>
		<path class="st47" d="M38.1,89.1c-1.4,1.9-2.7,3.8-4.1,5.7c-0.1-3.7-5.7-5.8-4.4-10.1c0.5-0.9,2-1,3.3-0.5c-0.2,0.5-1,1.9,0.1,3.3
			C34.5,88.8,36.9,87.1,38.1,89.1z"/>
		<path class="st48" d="M56.9,78.2c-0.3,0-0.5,0-0.8,0.1c0.3-6.7-2.9-12.8-3.4-19.4C55,65.1,56.9,71.5,56.9,78.2z"/>
		<path class="st23" d="M52.1,65.8c-0.2-0.3-0.3-0.7-0.5-1C51.8,65.1,52,65.4,52.1,65.8z"/>
		<path class="st4" d="M60.5,77.4c0,0-0.4,0.1-0.4,0.1c-2.7-0.9-2.3-3.5-2.9-5.4c-2.6-8.6-0.6-15.2,0.4-15.3
			c0.8,3.2,5.1,4.8,4.2,8.9c-0.6,2.9-0.4,5.8,3.3,6.9c1.5,0.4,0.8,1.9,0.8,2.9c-0.1,1.2-1.2,0.9-1.9,1.1
			C62.8,76.9,61.2,75.6,60.5,77.4z"/>
		<path class="st49" d="M60.5,77.4c0.7-1.8,2.3-0.6,3.4-0.9c0.7-0.2,1.8,0.2,1.9-0.9c0.1-1,0.8-2.5-0.8-2.9
			c-3.7-1.1-4.1-3.9-3.5-6.8c0.9-4.1-3.2-5.7-4-8.8c0.4-1.6,0.9-0.3,1.4,0c0.6,2.3,1.8,4.1,4.5,4.5c0.2,0.2,0.3,0.3,0.5,0.5
			c-3.2,4.5-2.3,7.8,3,10.2c1,0.4,1,1.1,0.9,1.7c-0.3,1.3-0.8,2.3-1,3.5C64.7,77.4,62.6,77.4,60.5,77.4z"/>
		<path class="st50" d="M66.8,77.4c0.2-1.3,0.8-2.5,0.6-3.8c-0.1-0.6-0.1-0.6-0.7-1.5c-2.9-1.4-4.2-2.4-4.6-4.6
			c-0.6-3.2,1.3-6.1,1.3-6.1s1.6-1.8,2.8-1.3c2.6,1-2.5,8.6,3,9.8c2.6,0.6,2.4,1.9,2,3.3c-0.5,2,3,4.1,3.7,5.8
			C74.1,78.9,67.7,77.5,66.8,77.4z"/>
		<line class="st51" x1="52.3" y1="79.7" x2="52.5" y2="79.7"/>
		<path class="st52" d="M112.7,60.1c3-0.3,1.4,2.1,2,3.3c-1.3,0-2,0.4-2.1,1.9c-0.1,1.9-0.4,2.5-2,3.6c-0.7,0.2-1.8-0.7-2.5-0.6
			C108.1,68.3,107.6,63.8,112.7,60.1z"/>
		<path class="st53" d="M126.7,39.1c1.7,2.1,1.1,2.9-1,4.4c-2.6,1.9-4.8,1.8-7.8,1.9C117.5,44.4,121.9,38.8,126.7,39.1z"/>
		<path class="st54" d="M69.6,50.8l0.7-0.3c0,0-0.1,3.7,0.6,4.6c2.2,2.8,3.6,2.8,4.5,4.9c0.7,1.8-1.3,3.8-0.8,5
			c0.6,1.4,3.8-0.2,5.2,2.9c0.5,1.1-0.3,3.9,0.4,4.9c0.8,1.2,3.5-0.7,5.2,1.8c1,1.4,0.5,3.2,1.2,4c1.3,1.4,5.2,0,7.3,2.3
			c1,1.1,0.8,4,1.7,4.8c0.9,0.8,4.7,0.3,4.7,0.3l1,2c0,0-5.2,0.6-6.5-0.4c-1.2-0.9-1.4-4.5-2.6-5.3c-1.4-1-5.6-0.8-6.7-2.1
			c-0.8-1-0.4-3.9-1.4-4.7c-1.1-0.9-4.6-0.3-5.5-1.5c-0.8-1.1,0.1-4.3-0.7-5.4c-0.8-1.1-4-1.8-4.5-3c-0.5-1.1,0.4-3.8,0-4.9
			c-0.5-1.4-2.8-3.5-3.4-4.9C69.3,54.3,69.6,50.8,69.6,50.8z"/>
		<path class="st50" d="M59,55.1l1.4-0.3c0,0,1.4,3,2.5,4c1.1,1,3.6,0.5,3.8,1.5c0.2,0.8-2.9,1.3-2.9,1.3s-2-0.3-3.3-1.6
			c-0.6-0.6-1.5-2.2-1.6-3.1C58.7,56.5,59,55.1,59,55.1z"/>
		<path class="st7" d="M54.7,77.3c0.2-4.1-1-7.8-2.5-11.5c-0.2-0.3-0.3-0.7-0.5-1c0-0.2,0-0.3,0-0.5c-0.3-0.2-0.6-0.3-0.9-0.5
			c-0.1-0.6-0.4-1.5-0.6-2c-0.2-0.4-0.7-1.2-1-1.5c-0.3-0.3-0.7-0.8-1.5-0.8c-0.4,0-1.3,0.3-1.7,0.3c-0.2,0-0.6,0-0.6,0l-3.5,1.4
			c0,0,1.3,5.7,2.2,7.4c0.1,0.3,0.5,0.9,0.7,1.1c0.3,0.3,0.9,0.8,1.5,1.3c1.4,1.3,2.4,2.7,2,4.9c-0.3,1.7-0.7,3.4,1.4,4.2
			c0.3,0.1,0.7,0.1,1,0.2c0.5-0.2,1.8-0.7,1.8-0.7c1-0.4,2.6-1,3.6-1.4C55.8,77.9,54.7,77.2,54.7,77.3z"/>
		<path class="st37" d="M104.9,31.5c0,0-1.1-0.8-1.5-0.9c-0.7,0-2.6,1.1-2.6,1.1s1.6-0.5,2.1-0.6C103.5,31.2,104.9,31.5,104.9,31.5z
			"/>
	</g>
	<g>
		<polygon class="st55" points="67.9,110 68.2,109.3 71,110.1 70.4,111.5 		"/>
		<polygon class="st56" points="68.1,109.5 68.3,109.1 71.1,109.9 70.7,110.8 		"/>
		<polygon class="st57" points="68.2,109.3 68.2,108.5 71.5,108.6 71.2,110.3 		"/>
		<polygon class="st58" points="68.2,108.8 68.2,108.3 71.5,108.5 71.3,109.5 		"/>
		<polygon class="st59" points="68.4,108.7 68.3,107.8 71.5,107 71.6,108.8 		"/>
		<polygon class="st60" points="68.3,108.1 68.3,107.6 71.5,106.9 71.6,107.8 		"/>
		<polygon class="st61" points="68.3,107.9 67.9,107 71.1,105.3 71.8,107.1 		"/>
		<polygon class="st62" points="68.1,107.4 67.9,107 71.1,105.2 71.5,106.3 		"/>
		<polygon class="st63" points="68.3,107.2 67.6,106.4 70.3,103.7 71.5,105.4 		"/>
		<polygon class="st64" points="67.8,106.6 67.6,106.4 70.3,103.6 70.9,104.5 		"/>
		<polygon class="st65" points="67.9,106.3 67.1,105.6 69.1,102.2 70.6,103.7 		"/>
		<polygon class="st66" points="67.3,105.8 67.1,105.6 68.9,102 69.8,102.9 		"/>
		<polygon class="st67" points="67.3,105.4 66.3,104.8 67.2,101 69.2,102.2 		"/>
		<polygon class="st68" points="66.5,105 66.2,104.8 67.1,101 68.3,101.6 		"/>
		<polygon class="st69" points="66.4,104.7 65.3,104.6 65.6,100.6 67.7,100.8 		"/>
		<polygon class="st70" points="65.6,104.6 65.1,104.6 65.4,100.6 66.5,100.7 		"/>
		<polygon class="st71" points="65.4,104.4 64.2,104.5 63.1,100.2 65.8,100.1 		"/>
		<polygon class="st72" points="64.5,104.5 64,104.5 62.9,100.2 64.5,100.1 		"/>
		<polygon class="st73" points="64.2,104.1 63,104.5 61,100.8 63.2,100 		"/>
		<polygon class="st74" points="63.2,104.5 62.8,104.6 60.7,100.8 61.8,100.5 		"/>
		<polygon class="st75" points="62.9,104.2 62,105 59,101.8 60.9,100.5 		"/>
		<polygon class="st76" points="62.2,104.8 62,105 58.5,102.1 59.7,101.3 		"/>
		<polygon class="st77" points="61.8,104.6 60.9,105.6 57.1,103.3 58.8,101.5 		"/>
		<polygon class="st78" points="61.2,105.2 60.8,105.6 57,103.3 58,102.3 		"/>
		<polygon class="st79" points="60.6,105.2 60,106.4 56.1,105 57.3,102.7 		"/>
		<polygon class="st77" points="60.1,106.1 59.9,106.6 56,105.2 56.6,104 		"/>
		<polygon class="st80" points="59.7,106.2 59.5,107.5 55.1,107.1 55.5,104.8 		"/>
		<polygon class="st81" points="59.5,107.2 59.5,107.6 55,107.2 55.2,106.1 		"/>
		<polygon class="st82" points="59.2,107.3 59.3,108.7 54.4,109.5 54.3,106.9 		"/>
		<polygon class="st83" points="59.3,108.4 59.3,108.8 54.4,109.6 54.4,108.4 		"/>
		<polygon class="st84" points="59,108.6 59.5,110 54.7,112.2 53.8,109.5 		"/>
		<polygon class="st85" points="59.4,109.6 59.6,110.1 54.8,112.3 54.3,110.8 		"/>
		<polygon class="st86" points="59.1,110.1 60,111.3 55.7,115 54.1,112.5 		"/>
		<polygon class="st87" points="59.8,111 60.2,111.6 55.9,115.2 55,113.9 		"/>
		<polygon class="st88" points="59.6,111.5 61,112.6 57.3,117.7 54.8,115.4 		"/>
		<polygon class="st89" points="60.6,112.3 61,112.6 57.3,117.7 56.2,116.6 		"/>
		<polygon class="st12" points="60.4,113.1 62,113.8 59.8,119.4 57,118 		"/>
		<polygon class="st90" points="61.7,113.7 62.1,113.9 60,119.5 58.8,118.9 		"/>
		<polygon class="st42" points="61.7,114.2 63.4,114.5 62.9,120.9 59.5,120.2 		"/>
		<polygon class="st91" points="62.8,114.4 63.4,114.5 62.9,120.9 61.2,120.6 		"/>
		<polygon class="st92" points="63.3,114.9 65.3,114.8 66.3,121.9 62.5,122 		"/>
		<polygon class="st93" points="64.7,114.8 65.4,114.8 66.9,121.9 64.9,121.9 		"/>
		<polygon class="st94" points="65.1,115.2 67.1,114.5 70.2,121.5 66.4,122.7 		"/>
		<polygon class="st95" points="66.3,114.8 67.1,114.5 70.7,121.3 68.4,122.1 		"/>
		<polygon class="st96" points="67.2,115.1 69,113.8 74.3,120.1 70.7,122.4 		"/>
		<polygon class="st97" points="68.4,114.3 69,113.8 74.3,120.1 72.4,121.3 		"/>
		<polygon class="st98" points="69.3,114.6 71,112.7 78.2,117.9 74.9,121.3 		"/>
		<polygon class="st99" points="70.5,113.3 71,112.7 78.2,117.9 76.5,119.7 		"/>
		<polygon class="st100" points="71.6,113.3 72.8,111.3 80.1,115.8 77.6,119.4 		"/>
		<polygon class="st101" points="72.4,112.1 72.8,111.3 80.1,115.8 79,117.4 		"/>
		<polygon class="st102" points="73,112.4 73.7,110.1 82.1,112.4 80.6,116.7 		"/>
		<polygon class="st103" points="73.4,111 73.7,110.1 82.3,111.9 81.6,114.2 		"/>
		<polygon class="st104" points="73.9,110.8 74.2,108.3 83.2,108.1 82.4,112.9 		"/>
		<polygon class="st105" points="74.1,109.2 74.2,108.3 83.2,108.1 82.9,110.1 		"/>
		<polygon class="st106" points="74.2,108.8 73.7,106.1 83.1,103.5 83.8,108.6 		"/>
		<polygon class="st107" points="73.9,107.2 73.7,106.1 83.1,103.5 83.4,105.5 		"/>
		<polygon class="st55" points="74.4,106.8 73.2,104.2 81.9,98.6 84.1,103.8 		"/>
		<polygon class="st108" points="73.6,104.9 73.1,103.9 82,98.7 82.8,100.7 		"/>
		<polygon class="st57" points="74,104.2 72.2,101.8 79.4,94 82.7,98.8 		"/>
		<polygon class="st109" points="72.8,102.5 71.6,101.2 79,93.4 80.7,95.5 		"/>
		<polygon class="st59" points="73.1,101.4 70.7,99.4 75.2,89.6 80.1,93.7 		"/>
		<polygon class="st110" points="75.2,89.6 77.1,91.2 71.2,99.8 70.7,99.4 		"/>
		<polygon class="st61" points="70.9,99 67.9,98 70.7,86.9 76.4,89.1 		"/>
		<polygon class="st111" points="68.8,98.3 67.3,97.8 70.1,86.7 72.9,87.7 		"/>
		<polygon class="st63" points="68.5,97.8 65.1,97.3 64.8,85.1 71.3,86.4 		"/>
		<polygon class="st112" points="66.1,97.4 64.5,97.3 64.2,85 66.7,85.5 		"/>
		<polygon class="st65" points="65.3,96.2 62.1,96.7 58.7,85.5 65,84.8 		"/>
		<polygon class="st113" points="63.1,96.5 61.5,96.7 58.1,85.5 60.9,85.1 		"/>
		<polygon class="st67" points="62,95.9 59,97.2 52.8,87.2 58.7,84.8 		"/>
		<polygon class="st114" points="60.2,96.7 57.8,97.8 51.7,87.8 54.5,86.5 		"/>
		<polygon class="st69" points="58.7,96.3 55.9,98.3 46.9,90 52.5,86.3 		"/>
		<polygon class="st115" points="56.8,97.5 55.3,98.9 46.5,90.3 49.1,88.5 		"/>
		<polygon class="st71" points="55.4,97.2 52.9,100 43.3,93.9 47.1,89.2 		"/>
		<polygon class="st116" points="54,98.8 52.7,100.5 42.9,94.4 44.7,92.2 		"/>
		<polygon class="st73" points="52.3,99.3 51.1,102.5 39.4,99.1 42,93.1 		"/>
		<polygon class="st117" points="51.6,101 51.1,103 39.4,99.6 40.7,96.1 		"/>
		<polygon class="st75" points="50.3,102 49.8,105.7 36.3,105 37.6,97.9 		"/>
		<polygon class="st118" points="50,104.5 49.8,106.3 36.3,105.6 36.8,102.6 		"/>
		<polygon class="st119" points="49,105.3 49.6,109.2 35.6,112.3 34.8,104.7 		"/>
		<polygon class="st120" points="49.3,107.9 49.6,109.8 35.6,112.9 35.4,109.5 		"/>
		<polygon class="st79" points="48.4,109.1 50.2,113 36.7,120.4 33.7,112.7 		"/>
		<polygon class="st121" points="49.4,112 50.2,113.6 36.7,121 35.4,117 		"/>
		<polygon class="st80" points="49.1,113.3 51.9,117 39.2,128.4 34.1,120.9 		"/>
		<polygon class="st122" points="51.1,115.9 51.9,117 39.5,128.8 37.3,125.6 		"/>
		<polygon class="st82" points="50.3,118 53.9,120.7 45,134.5 38.2,129 		"/>
		<polygon class="st123" points="52.2,119.4 54.4,120.9 45.3,134.8 42.8,132.7 		"/>
		<polygon class="st84" points="52.9,121.6 57.5,123.3 52.4,140.3 43.8,136.4 		"/>
		<polygon class="st124" points="55.9,122.7 57.8,123.5 52.7,140.4 49.4,138.9 		"/>
		<polygon class="st86" points="56.8,124.4 62.1,125.2 60.9,144.7 50.7,142.8 		"/>
		<polygon class="st125" points="61.1,124.9 62.7,125.2 61.5,144.7 58.3,144.1 		"/>
		<polygon class="st88" points="61.6,126.4 67.2,125.6 71.5,145.9 60.6,147 		"/>
		<polygon class="st126" points="66,125.8 67.8,125.6 72.1,145.9 68.9,146.1 		"/>
		<polygon class="st12" points="67.1,127.2 72.7,124.8 83.2,144.4 72.2,148.6 		"/>
		<polygon class="st127" points="72.6,124.8 71,125.5 79.8,145.7 82.8,144.3 		"/>
		<polygon class="st42" points="73.1,126.3 78.6,122.3 94.9,140.8 84,148.2 		"/>
	</g>
</g>
</svg>
