<?xml version="1.0" encoding="utf-8"?>
<!-- Generator: Adobe Illustrator 21.0.2, SVG Export Plug-In . SVG Version: 6.00 Build 0)  -->
<svg version="1.1" id="Слой_1" xmlns="http://www.w3.org/2000/svg" xmlns:xlink="http://www.w3.org/1999/xlink" x="0px" y="0px"
	 viewBox="0 0 902 637.8" style="enable-background:new 0 0 902 637.8;" xml:space="preserve">
<style type="text/css">
	.st0{fill:#5C8FCC;}
	.st1{fill:none;}
	.st2{fill:none;stroke:#5C8FCC;stroke-width:16;stroke-miterlimit:10;}
	.st3{fill:none;stroke:#5C8FCC;stroke-width:15;stroke-miterlimit:10;}
</style>
<g>
	<g>
		<g>
			<path class="st0" d="M481.1,542.7c0,0-24.6-29.9-81.9-39.6c-55.8-13-123.4-67.5-140.7-144c-20.1-75.8,13.7-155,56.9-192.1
				c42.9-38.9,83.1-44.9,82.3-45.5c1,1.2-38.9,8.1-80.7,47.2c-42.2,37.3-74.2,115.5-53.9,189.2c17.7,74.5,83.8,126.7,137.8,138.8
				c12.9,2,24.5,5.1,34.6,8.7c38.1,13.5,52.8,31,52.8,31L481.1,542.7z"/>
		</g>
		<g>
			<path class="st0" d="M421,542.7c0,0,24.6-29.9,81.9-39.6c55.8-13,123.4-67.5,140.7-144c20.1-75.8-13.7-155-56.9-192.1
				c-42.9-38.9-83.1-44.9-82.3-45.5c-1,1.2,38.9,8.1,80.7,47.2c42.2,37.3,74.2,115.5,53.9,189.2c-17.7,74.5-83.8,126.7-137.8,138.8
				c-12.9,2-24.5,5.1-34.6,8.7c-38.1,13.5-52.8,31-52.8,31L421,542.7z"/>
		</g>
		<g>
			<g>
				<path class="st0" d="M382.6,455.8c0,0,15.6,5.4,20.8,17.8c6.5,15.6,3.7,28.6,3.7,28.6s-15.7-8.1-20.9-16.6
					C378.8,473.8,382.6,455.8,382.6,455.8z"/>
				<path class="st0" d="M355.2,524.2c0,0,15.8,4.9,27.3-2.2c14.4-8.8,19.8-21,19.8-21s-17.5-2.6-26.7,1.1
					C362.7,507.4,355.2,524.2,355.2,524.2z"/>
			</g>
			<g>
				<path class="st0" d="M358.3,442.3c0,0,14.2,7.8,17.1,20.8c3.6,16.1-1.3,28.3-1.3,28.3s-13.7-10.5-17.4-19.6
					C351.5,459.1,358.3,442.3,358.3,442.3z"/>
				<path class="st0" d="M320.1,503.7c0,0,14.4,7.4,26.8,2.5c15.4-6,22.7-16.9,22.7-16.9s-16.4-5.5-25.9-3.5
					C330.3,488.8,320.1,503.7,320.1,503.7z"/>
			</g>
			<g>
				<path class="st0" d="M336.4,424.9c0,0,12.3,10,12.9,22.9c0.7,16.2-6.1,27.1-6.1,27.1s-11.5-12.5-13.4-21.8
					C327.1,439.9,336.4,424.9,336.4,424.9z"/>
				<path class="st0" d="M289.2,477.7c0,0,12.7,9.6,25.4,7c15.9-3.2,24.8-12.4,24.8-12.4s-14.9-8.1-24.4-7.8
					C301.5,465,289.2,477.7,289.2,477.7z"/>
			</g>
			<g>
				<path class="st0" d="M317.9,403.7c0,0,10.2,11.7,8.6,24.3c-2,15.8-10.5,25.1-10.5,25.1s-8.9-14-9.2-23.4
					C306.3,416.7,317.9,403.7,317.9,403.7z"/>
				<path class="st0" d="M263.3,446.6c0,0,10.6,11.4,23.3,11.1c15.9-0.4,26-7.8,26-7.8s-13-10.4-22.3-11.6
					C277.3,436.5,263.3,446.6,263.3,446.6z"/>
			</g>
			<g>
				<path class="st0" d="M303.1,379.8c0,0,7.9,13.1,4.1,25c-4.7,14.9-14.4,22.4-14.4,22.4s-6.2-15-4.9-24.1
					C289.8,390.3,303.1,379.8,303.1,379.8z"/>
				<path class="st0" d="M243.2,411.9c0,0,8.3,12.8,20.6,14.7c15.4,2.3,26.4-3.1,26.4-3.1s-10.8-12.2-19.5-15
					C258.5,404.5,243.2,411.9,243.2,411.9z"/>
			</g>
			<g>
				<path class="st0" d="M293,353.7c0,0,5.4,13.9-0.3,24.8c-7,13.5-17.7,19.2-17.7,19.2s-3.5-15.6-0.7-24.1
					C278.3,361.6,293,353.7,293,353.7z"/>
				<path class="st0" d="M229.7,374.5c0,0,5.8,13.8,17.4,17.7c14.5,4.9,26,1.5,26,1.5s-8.3-13.6-16.3-17.8
					C245.7,370,229.7,374.5,229.7,374.5z"/>
			</g>
			<g>
				<path class="st0" d="M287.4,326.4c0,0,2.8,14.4-4.5,23.9c-9.1,11.9-20.3,15.5-20.3,15.5s-0.7-15.6,3.5-23.4
					C271.9,331.5,287.4,326.4,287.4,326.4z"/>
				<path class="st0" d="M222.7,335.7c0,0,3.3,14.3,13.8,20c13.1,7.2,24.9,5.9,24.9,5.9s-5.7-14.6-12.7-20
					C239,334,222.7,335.7,222.7,335.7z"/>
			</g>
			<g>
				<path class="st0" d="M286.6,298.4c0,0,0.3,14.4-8.4,22.3c-10.8,9.9-22.3,11.5-22.3,11.5s2-15.2,7.3-22
					C270.8,300.6,286.6,298.4,286.6,298.4z"/>
				<path class="st0" d="M222.6,296.3c0,0,0.7,14.3,9.9,21.7c11.4,9.1,23,9.9,23,9.9s-3-15-8.8-21.4
					C238.6,297.5,222.6,296.3,222.6,296.3z"/>
			</g>
			<g>
				<path class="st0" d="M290.6,269.7c0,0-2.2,13.9-11.9,20.1c-12.1,7.7-23.4,7.3-23.4,7.3s4.5-14.3,10.8-20
					C275,269.2,290.6,269.7,290.6,269.7z"/>
				<path class="st0" d="M229.2,256.9c0,0-1.7,14,5.9,22.6c9.5,10.8,20.5,13.5,20.5,13.5s-0.4-15-4.9-22.2
					C244.4,260.7,229.2,256.9,229.2,256.9z"/>
			</g>
			<g>
				<path class="st0" d="M299.6,241.8c0,0-4.5,13-14.9,17.4c-13,5.4-23.9,3.1-23.9,3.1s6.8-13.1,13.8-17.4
					C284.6,238.7,299.6,241.8,299.6,241.8z"/>
				<path class="st0" d="M242.5,218.9c0,0-4,13.2,1.8,22.8c7.3,12,17.5,16.5,17.5,16.5s2.2-14.6-0.9-22.2
					C256.5,225.2,242.5,218.9,242.5,218.9z"/>
			</g>
			<g>
				<path class="st0" d="M313.5,215.9c0,0-6.5,11.8-17.3,14.2c-13.5,3-23.6-1.1-23.6-1.1s8.8-11.4,16.3-14.5
					C299.5,210.3,313.5,215.9,313.5,215.9z"/>
				<path class="st0" d="M262.3,184.1c0,0-6.1,12-2.1,22.3c5,12.8,14.1,18.9,14.1,18.9s4.6-13.7,2.9-21.6
					C274.7,192.6,262.3,184.1,262.3,184.1z"/>
			</g>
			<g>
				<path class="st0" d="M331.7,192.8c0,0-8.3,10.3-19.1,10.8c-13.5,0.6-22.5-5.1-22.5-5.1s10.4-9.5,18.2-11.2
					C319.2,185.1,331.7,192.8,331.7,192.8z"/>
				<path class="st0" d="M287.7,153.4c0,0-8,10.6-5.8,21.2c2.7,13.2,10.4,20.7,10.4,20.7s6.8-12.4,6.5-20.4
					C298.3,163.7,287.7,153.4,287.7,153.4z"/>
			</g>
			<g>
				<path class="st0" d="M353.6,173.5c0,0-9.8,8.5-20.3,7.1c-13.1-1.7-20.9-8.7-20.9-8.7s11.7-7.4,19.5-7.7
					C342.8,163.9,353.6,173.5,353.6,173.5z"/>
				<path class="st0" d="M317.8,128c0,0-9.5,8.8-9.2,19.4c0.3,13.2,6.5,21.7,6.5,21.7s8.6-10.8,9.7-18.6
					C326.3,139.7,317.8,128,317.8,128z"/>
			</g>
			<g>
				<path class="st0" d="M378.3,158.4c0,0-10.9,6.6-20.8,3.4c-12.4-3.9-18.7-12-18.7-12s12.5-5.2,20.1-4.1
					C369.6,147.2,378.3,158.4,378.3,158.4z"/>
				<path class="st0" d="M351.5,108.4c0,0-10.7,6.9-12.2,17.2c-1.9,12.8,2.6,22,2.6,22s10.2-9,12.5-16.3
					C357.7,121.1,351.5,108.4,351.5,108.4z"/>
			</g>
			<g>
				<path class="st0" d="M404.9,147.9c0,0-11.6,4.5-20.7-0.2c-11.3-5.9-16-14.7-16-14.7s13-2.9,20.1-0.5
					C398.3,135.6,404.9,147.9,404.9,147.9z"/>
				<path class="st0" d="M387.5,95c0,0-11.5,4.9-14.7,14.5c-4.1,12-1.3,21.7-1.3,21.7s11.4-6.9,14.9-13.6
					C391.3,108.4,387.5,95,387.5,95z"/>
			</g>
			<path class="st0" d="M388,124.8c0,0,8.6,4.9,16.2,2.2c9.5-3.3,14.2-9.7,14.2-9.7s-9.8-3.8-15.7-2.8
				C394.6,116,388,124.8,388,124.8z"/>
			<g>
				<path class="st0" d="M519.4,455.8c0,0-15.6,5.4-20.8,17.8c-6.5,15.6-3.7,28.6-3.7,28.6s15.7-8.1,20.9-16.6
					C523.2,473.8,519.4,455.8,519.4,455.8z"/>
				<path class="st0" d="M546.9,524.2c0,0-15.8,4.9-27.3-2.2c-14.4-8.8-19.8-21-19.8-21s17.5-2.6,26.7,1.1
					C539.3,507.4,546.9,524.2,546.9,524.2z"/>
			</g>
			<g>
				<path class="st0" d="M543.8,442.3c0,0-14.2,7.8-17.1,20.8c-3.6,16.1,1.3,28.3,1.3,28.3s13.7-10.5,17.3-19.6
					C550.5,459.1,543.8,442.3,543.8,442.3z"/>
				<path class="st0" d="M581.9,503.7c0,0-14.4,7.4-26.8,2.5c-15.4-6-22.7-16.9-22.7-16.9s16.4-5.5,25.9-3.5
					C571.7,488.8,581.9,503.7,581.9,503.7z"/>
			</g>
			<g>
				<path class="st0" d="M565.6,424.9c0,0-12.3,10-12.9,22.9c-0.7,16.2,6.1,27.1,6.1,27.1s11.5-12.5,13.4-21.8
					C575,439.9,565.6,424.9,565.6,424.9z"/>
				<path class="st0" d="M612.9,477.7c0,0-12.7,9.6-25.4,7c-15.9-3.2-24.8-12.4-24.8-12.4s14.9-8.1,24.4-7.8
					C600.5,465,612.9,477.7,612.9,477.7z"/>
			</g>
			<g>
				<path class="st0" d="M584.2,403.7c0,0-10.2,11.7-8.6,24.3c2,15.8,10.5,25.1,10.5,25.1s8.9-14,9.2-23.4
					C595.7,416.7,584.2,403.7,584.2,403.7z"/>
				<path class="st0" d="M638.7,446.6c0,0-10.6,11.4-23.3,11.1c-15.9-0.4-26-7.8-26-7.8s13-10.4,22.3-11.6
					C624.7,436.5,638.7,446.6,638.7,446.6z"/>
			</g>
			<g>
				<path class="st0" d="M598.9,379.8c0,0-7.9,13.1-4.1,25c4.7,14.9,14.4,22.4,14.4,22.4s6.2-15,4.9-24.1
					C612.2,390.3,598.9,379.8,598.9,379.8z"/>
				<path class="st0" d="M658.8,411.9c0,0-8.3,12.8-20.6,14.7c-15.4,2.3-26.4-3.1-26.4-3.1s10.8-12.2,19.5-15
					C643.6,404.5,658.8,411.9,658.8,411.9z"/>
			</g>
			<g>
				<path class="st0" d="M609,353.7c0,0-5.4,13.9,0.3,24.8c7,13.5,17.7,19.2,17.7,19.2s3.5-15.6,0.7-24.1
					C623.7,361.6,609,353.7,609,353.7z"/>
				<path class="st0" d="M672.4,374.5c0,0-5.8,13.8-17.4,17.7c-14.5,4.9-26,1.5-26,1.5s8.3-13.6,16.3-17.8
					C656.4,370,672.4,374.5,672.4,374.5z"/>
			</g>
			<g>
				<path class="st0" d="M614.6,326.4c0,0-2.8,14.4,4.5,23.9c9.1,11.9,20.3,15.5,20.3,15.5s0.7-15.6-3.5-23.4
					C630.1,331.5,614.6,326.4,614.6,326.4z"/>
				<path class="st0" d="M679.3,335.7c0,0-3.3,14.3-13.8,20c-13.1,7.2-24.9,5.9-24.9,5.9s5.7-14.6,12.7-20
					C663.1,334,679.3,335.7,679.3,335.7z"/>
			</g>
			<g>
				<path class="st0" d="M615.4,298.4c0,0-0.3,14.4,8.4,22.3c10.8,9.9,22.3,11.5,22.3,11.5s-2-15.2-7.3-22
					C631.2,300.6,615.4,298.4,615.4,298.4z"/>
				<path class="st0" d="M679.4,296.3c0,0-0.7,14.3-9.9,21.7c-11.5,9.1-23,9.9-23,9.9s3-15,8.8-21.4
					C663.5,297.5,679.4,296.3,679.4,296.3z"/>
			</g>
			<g>
				<path class="st0" d="M611.4,269.7c0,0,2.2,13.9,11.9,20.1c12.1,7.7,23.4,7.3,23.4,7.3s-4.5-14.3-10.8-20
					C627.1,269.2,611.4,269.7,611.4,269.7z"/>
				<path class="st0" d="M672.8,256.9c0,0,1.7,14-5.9,22.6c-9.5,10.8-20.5,13.5-20.5,13.5s0.4-15,4.9-22.2
					C657.6,260.7,672.8,256.9,672.8,256.9z"/>
			</g>
			<g>
				<path class="st0" d="M602.4,241.8c0,0,4.5,13,14.9,17.4c13,5.4,23.9,3.1,23.9,3.1s-6.8-13.1-13.8-17.4
					C617.4,238.7,602.4,241.8,602.4,241.8z"/>
				<path class="st0" d="M659.5,218.9c0,0,4,13.2-1.8,22.8c-7.3,12-17.5,16.5-17.5,16.5s-2.2-14.6,0.9-22.2
					C645.5,225.2,659.5,218.9,659.5,218.9z"/>
			</g>
			<g>
				<path class="st0" d="M588.6,215.9c0,0,6.5,11.8,17.3,14.2c13.5,3,23.5-1.1,23.5-1.1s-8.8-11.4-16.3-14.5
					C602.5,210.3,588.6,215.9,588.6,215.9z"/>
				<path class="st0" d="M639.7,184.1c0,0,6.1,12,2.1,22.3c-5,12.8-14.1,18.9-14.1,18.9s-4.6-13.7-2.9-21.6
					C627.3,192.6,639.7,184.1,639.7,184.1z"/>
			</g>
			<g>
				<path class="st0" d="M570.3,192.8c0,0,8.3,10.3,19.1,10.8c13.5,0.6,22.5-5.1,22.5-5.1s-10.4-9.5-18.2-11.2
					C582.8,185.1,570.3,192.8,570.3,192.8z"/>
				<path class="st0" d="M614.3,153.4c0,0,8,10.6,5.8,21.2c-2.7,13.2-10.4,20.7-10.4,20.7s-6.8-12.4-6.5-20.4
					C603.7,163.7,614.3,153.4,614.3,153.4z"/>
			</g>
			<g>
				<path class="st0" d="M548.4,173.5c0,0,9.8,8.5,20.3,7.1c13.1-1.7,20.9-8.7,20.9-8.7s-11.7-7.4-19.5-7.7
					C559.2,163.9,548.4,173.5,548.4,173.5z"/>
				<path class="st0" d="M584.2,128c0,0,9.5,8.8,9.2,19.4c-0.3,13.2-6.5,21.7-6.5,21.7s-8.6-10.8-9.7-18.6
					C575.7,139.7,584.2,128,584.2,128z"/>
			</g>
			<g>
				<path class="st0" d="M523.7,158.4c0,0,10.9,6.6,20.8,3.4c12.4-3.9,18.7-12,18.7-12s-12.5-5.2-20.1-4.1
					C532.5,147.2,523.7,158.4,523.7,158.4z"/>
				<path class="st0" d="M550.5,108.4c0,0,10.7,6.9,12.2,17.2c1.9,12.8-2.6,22-2.6,22s-10.2-9-12.5-16.3
					C544.3,121.1,550.5,108.4,550.5,108.4z"/>
			</g>
			<g>
				<path class="st0" d="M497.2,147.9c0,0,11.6,4.5,20.7-0.2c11.3-5.9,16-14.7,16-14.7s-13-2.9-20.1-0.5
					C503.7,135.6,497.2,147.9,497.2,147.9z"/>
				<path class="st0" d="M514.5,95c0,0,11.5,4.9,14.7,14.5c4.1,12,1.3,21.7,1.3,21.7s-11.4-6.9-14.9-13.6
					C510.7,108.4,514.5,95,514.5,95z"/>
			</g>
			<path class="st0" d="M514,124.8c0,0-8.6,4.9-16.2,2.2c-9.5-3.3-14.2-9.7-14.2-9.7s9.8-3.8,15.7-2.8
				C507.4,116,514,124.8,514,124.8z"/>
		</g>
	</g>
	<g>
		<path class="st0" d="M455.3,346.9c-2.8,1.5-5.3,1.5-8.3,0l-80.7-42.3c-2.3-2.3-2.3-6,0-8.3l80.7-42.3c3.2-1.7,5.1-1.7,8.3,0
			l80.7,42.3c2.3,2.3,2.3,6,0,8.3L455.3,346.9z"/>
		<rect x="379.7" y="307.4" class="st0" width="7" height="79"/>
		<circle class="st0" cx="382" cy="385.7" r="5.8"/>
		<path class="st0" d="M455.1,353.5c-2.8,1.5-5.3,1.5-8.3,0l-46-24.1v42.9v0.3c0,9.5,24.8,23.7,50.6,23.7
			c25.7,0,51.8-14.1,51.9-23.9h0.8v-44.5L455.1,353.5z"/>
	</g>
</g>
<g>
	
		<rect x="144.1" y="-109.7" transform="matrix(6.123234e-17 -1 1 6.123234e-17 132.1115 769.9068)" class="st1" width="613.7" height="857.1"/>
</g>
<rect x="22.4" y="12" class="st2" width="857.1" height="613.7"/>
<rect x="65.5" y="58.7" class="st3" width="771" height="520.4"/>
</svg>
